<svg width="400" height="300" viewBox="0 0 400 300" fill="none" xmlns="http://www.w3.org/2000/svg">
<rect width="400" height="300" fill="#F5F5F5"/>
<g clip-path="url(#clip0_0_1)">
<path d="M0 0H400V300H0V0Z" fill="white"/>
<path d="M400 260.881C395.518 264.926 391.667 274.379 379.76 274.379C355.953 274.379 349.999 254.477 332.142 254.477C320.238 254.477 314.285 274.379 302.381 274.379C278.571 274.379 272.619 254.477 254.762 254.477C242.857 254.477 236.905 274.379 225 274.379C201.191 274.379 195.238 254.477 177.381 254.477C165.476 254.477 159.524 274.379 147.619 274.379C123.81 274.379 117.857 254.477 100 254.477C88.0947 254.477 82.1427 274.379 70.238 274.379C46.4287 274.379 40.476 254.477 22.6193 254.477C10.714 254.477 7.14267 268.659 0 268.659V294.28C7.14267 294.28 10.714 280.099 22.6193 280.099C40.476 280.099 46.4287 300 70.238 300C82.1427 300 88.0947 280.099 100 280.099C117.857 280.099 123.81 300 147.619 300C159.524 300 165.476 280.099 177.381 280.099C195.238 280.099 201.191 300 225 300C236.905 300 242.857 280.099 254.762 280.099C272.619 280.099 278.571 300 302.381 300C314.285 300 320.238 280.099 332.142 280.099C349.999 280.099 355.953 300 379.76 300C391.667 300 395.518 294.36 400 290.316V260.881Z" fill="#012169"/>
<path d="M400 211.128C395.518 215.173 391.667 224.626 379.76 224.626C355.953 224.626 349.999 204.724 332.142 204.724C320.238 204.724 314.285 224.626 302.381 224.626C278.571 224.626 272.619 204.724 254.762 204.724C242.857 204.724 236.905 224.626 225 224.626C201.191 224.626 195.238 204.724 177.381 204.724C165.476 204.724 159.524 224.626 147.619 224.626C123.81 224.626 117.857 204.724 100 204.724C88.0947 204.724 82.1427 224.626 70.238 224.626C46.4287 224.626 40.476 204.724 22.6193 204.724C10.714 204.724 7.14267 218.906 0 218.906V244.527C7.14267 244.527 10.714 230.346 22.6193 230.346C40.476 230.346 46.4287 250.247 70.238 250.247C82.1427 250.247 88.0947 230.346 100 230.346C117.857 230.346 123.81 250.247 147.619 250.247C159.524 250.247 165.476 230.346 177.381 230.346C195.238 230.346 201.191 250.247 225 250.247C236.905 250.247 242.857 230.346 254.762 230.346C272.619 230.346 278.571 250.247 302.381 250.247C314.285 250.247 320.238 230.346 332.142 230.346C349.999 230.346 355.953 250.247 379.76 250.247C391.667 250.247 395.518 244.607 400 240.563V211.128Z" fill="#012169"/>
<path d="M400 161.374C395.518 165.419 391.667 174.872 379.76 174.872C355.953 174.872 349.999 154.97 332.142 154.97C320.238 154.97 314.285 174.872 302.381 174.872C278.571 174.872 272.619 154.97 254.762 154.97C242.857 154.97 236.905 174.872 225 174.872C201.191 174.872 195.238 154.97 177.381 154.97C165.476 154.97 159.524 174.872 147.619 174.872C123.81 174.872 117.857 154.97 100 154.97C88.0947 154.97 82.1427 174.872 70.238 174.872C46.4287 174.872 40.476 154.97 22.6193 154.97C10.714 154.97 7.14267 169.152 0 169.152V194.773C7.14267 194.773 10.714 180.592 22.6193 180.592C40.476 180.592 46.4287 200.493 70.238 200.493C82.1427 200.493 88.0947 180.592 100 180.592C117.857 180.592 123.81 200.493 147.619 200.493C159.524 200.493 165.476 180.592 177.381 180.592C195.238 180.592 201.191 200.493 225 200.493C236.905 200.493 242.857 180.592 254.762 180.592C272.619 180.592 278.571 200.493 302.381 200.493C314.285 200.493 320.238 180.592 332.142 180.592C349.999 180.592 355.953 200.493 379.76 200.493C391.667 200.493 395.518 194.853 400 190.809V161.374Z" fill="#012169"/>
<path d="M400 111.62C395.518 115.665 391.667 125.118 379.76 125.118C355.953 125.118 349.999 105.216 332.142 105.216C320.238 105.216 314.285 125.118 302.381 125.118C278.571 125.118 272.619 105.216 254.762 105.216C242.857 105.216 236.905 125.118 225 125.118C201.191 125.118 195.238 105.216 177.381 105.216C165.476 105.216 159.524 125.118 147.619 125.118C123.81 125.118 117.857 105.216 100 105.216C88.0947 105.216 82.1427 125.118 70.238 125.118C46.4287 125.118 40.476 105.216 22.6193 105.216C10.714 105.216 7.14267 119.398 0 119.398V145.019C7.14267 145.019 10.714 130.838 22.6193 130.838C40.476 130.838 46.4287 150.739 70.238 150.739C82.1427 150.739 88.0947 130.838 100 130.838C117.857 130.838 123.81 150.739 147.619 150.739C159.524 150.739 165.476 130.838 177.381 130.838C195.238 130.838 201.191 150.739 225 150.739C236.905 150.739 242.857 130.838 254.762 130.838C272.619 130.838 278.571 150.739 302.381 150.739C314.285 150.739 320.238 130.838 332.142 130.838C349.999 130.838 355.953 150.739 379.76 150.739C391.667 150.739 395.518 145.099 400 141.055V111.62Z" fill="#012169"/>
<path d="M400 61.867C395.518 65.912 391.667 75.365 379.76 75.365C355.953 75.365 349.999 55.463 332.142 55.463C320.238 55.463 314.285 75.365 302.381 75.365C278.571 75.365 272.619 55.463 254.762 55.463C242.857 55.463 236.905 75.365 225 75.365C201.191 75.365 195.238 55.463 177.381 55.463C165.476 55.463 159.524 75.365 147.619 75.365C123.81 75.365 117.857 55.463 100 55.463C88.0947 55.463 82.1427 75.365 70.238 75.365C46.4287 75.365 40.476 55.463 22.6193 55.463C10.714 55.463 7.14267 69.645 0 69.645V95.266C7.14267 95.266 10.714 81.085 22.6193 81.085C40.476 81.085 46.4287 100.986 70.238 100.986C82.1427 100.986 88.0947 81.085 100 81.085C117.857 81.085 123.81 100.986 147.619 100.986C159.524 100.986 165.476 81.085 177.381 81.085C195.238 81.085 201.191 100.986 225 100.986C236.905 100.986 242.857 81.085 254.762 81.085C272.619 81.085 278.571 100.986 302.381 100.986C314.285 100.986 320.238 81.085 332.142 81.085C349.999 81.085 355.953 100.986 379.76 100.986C391.667 100.986 395.518 95.346 400 91.302V61.867Z" fill="#012169"/>
<path d="M400 12.1135C395.518 16.1585 391.667 25.6115 379.76 25.6115C355.953 25.6115 349.999 5.70949 332.142 5.70949C320.238 5.70949 314.285 25.6115 302.381 25.6115C278.571 25.6115 272.619 5.70949 254.762 5.70949C242.857 5.70949 236.905 25.6115 225 25.6115C201.191 25.6115 195.238 5.70949 177.381 5.70949C165.476 5.70949 159.524 25.6115 147.619 25.6115C123.81 25.6115 117.857 5.70949 100 5.70949C88.0947 5.70949 82.1427 25.6115 70.238 25.6115C46.4287 25.6115 40.476 5.70949 22.6193 5.70949C10.714 5.70949 7.14267 19.8915 0 19.8915V45.5125C7.14267 45.5125 10.714 31.3315 22.6193 31.3315C40.476 31.3315 46.4287 51.2325 70.238 51.2325C82.1427 51.2325 88.0947 31.3315 100 31.3315C117.857 31.3315 123.81 51.2325 147.619 51.2325C159.524 51.2325 165.476 31.3315 177.381 31.3315C195.238 31.3315 201.191 51.2325 225 51.2325C236.905 51.2325 242.857 31.3315 254.762 31.3315C272.619 31.3315 278.571 51.2325 302.381 51.2325C314.285 51.2325 320.238 31.3315 332.142 31.3315C349.999 31.3315 355.953 51.2325 379.76 51.2325C391.667 51.2325 395.518 45.5925 400 41.5485V12.1135Z" fill="#012169"/>
<path d="M0 0H193.333V152H0V0Z" fill="white"/>
<mask id="mask0_0_1" style="mask-type:luminance" maskUnits="userSpaceOnUse" x="0" y="0" width="200" height="150">
<path d="M0 0H200V150H0V0Z" fill="white"/>
</mask>
<g mask="url(#mask0_0_1)">
<path d="M0 0H200V150H0V0Z" fill="#012169"/>
<path d="M0 0L200 150ZM200 0L0 150Z" fill="black"/>
<path d="M0 0L200 150M200 0L0 150" stroke="white" stroke-width="30"/>
<mask id="mask1_0_1" style="mask-type:luminance" maskUnits="userSpaceOnUse" x="0" y="0" width="234" height="200">
<path d="M0 0V75H233.333V150H200L0 0ZM200 0H100V200H0V150L200 0Z" fill="white"/>
</mask>
<g mask="url(#mask1_0_1)">
<path d="M0 0L200 150ZM200 0L0 150Z" fill="black"/>
<path d="M0 0L200 150M200 0L0 150" stroke="#C8102E" stroke-width="20"/>
</g>
<path d="M100 0V200ZM0 75H233.333Z" fill="black"/>
<path d="M100 0V200M0 75H233.333" stroke="white" stroke-width="50"/>
<path d="M100 0V200ZM0 75H233.333Z" fill="black"/>
<path d="M100 0V200M0 75H233.333" stroke="#C8102E" stroke-width="30"/>
</g>
<path d="M297.682 79.2222L296.303 283.383C296.116 294.968 303.199 295.014 303.199 283.383L301.82 79.2222H297.682Z" fill="#A24300" stroke="black" stroke-width="0.75"/>
<path d="M310.893 154.096L306.452 147.278L304.281 155.061L303.231 144.355L300.45 150.19L301.4 138.514L298.619 144.349L299.569 132.672L296.788 138.508L297.128 124.884L294.348 130.719L294.688 117.095L291.907 122.931L292.247 109.307L292.417 102.495L293.807 99.5768L296.418 100.554L300.249 105.425L307.912 115.166L302.69 113.213L310.353 122.955L305.131 121.001L312.794 130.743L307.572 128.79L314.624 136.584L309.402 134.631L316.455 142.426L311.233 140.472L316.285 149.237L310.453 145.337L310.893 154.096Z" fill="#006D00" stroke="black" stroke-width="0.606637"/>
<path d="M312.379 155.179L292.321 98.4945" stroke="black" stroke-width="0.136242"/>
<path d="M306.001 114.454L295.722 107.336L291.897 121.539" stroke="black" stroke-width="0.136242"/>
<path d="M308.867 122.551L298.588 115.433L294.762 129.637" stroke="black" stroke-width="0.136242"/>
<path d="M311.732 130.649L301.453 123.531L297.627 137.734" stroke="black" stroke-width="0.136242"/>
<path d="M313.881 136.832L304.244 131.574L299.926 143.808" stroke="black" stroke-width="0.136242"/>
<path d="M316.03 142.905L306.393 137.647L302.075 149.881" stroke="black" stroke-width="0.136242"/>
<path d="M316.55 149.817L307.869 141.627L305.766 155.254" stroke="black" stroke-width="0.136242"/>
<path d="M259.401 58.0964L266.75 62.5427L264.379 54.3537L270.995 63.8834L270.176 57.2474L275.65 68.5421L274.831 61.906L280.305 73.2008L279.486 66.5647L286.511 79.4123L285.692 72.7763L292.718 85.6239L291.899 78.9878L298.924 91.8355L302.437 98.2593L302.847 101.578L300.153 101.79L294.356 98.896L282.762 93.1089L288.15 92.6844L276.556 86.8974L281.943 86.4729L270.349 80.6858L275.737 80.2613L265.694 76.0271L271.082 75.6026L261.039 71.3685L266.427 70.944L257.526 64.9447L264.466 66.0731L259.401 58.0964Z" fill="#006D00" stroke="black" stroke-width="0.675913"/>
<path d="M259.733 58.5625L302.515 101.112" stroke="black" stroke-width="0.1518"/>
<path d="M282.335 92.9509L296.606 95.2783L291.73 78.3885" stroke="black" stroke-width="0.1518"/>
<path d="M276.223 86.8726L290.494 89.1999L285.619 72.3101" stroke="black" stroke-width="0.1518"/>
<path d="M270.112 80.7942L284.383 83.1215L279.507 66.2317" stroke="black" stroke-width="0.1518"/>
<path d="M265.528 76.2882L278.253 77.0168L274.96 61.6729" stroke="black" stroke-width="0.1518"/>
<path d="M260.944 71.7295L273.669 72.4579L270.376 57.1142" stroke="black" stroke-width="0.1518"/>
<path d="M257.586 65.2936L270.602 69.4164L264.589 54.437" stroke="black" stroke-width="0.1518"/>
<path d="M345.648 71.3967L339.196 78.1519L345.758 78.2931L336.283 82.4762L341.076 83.8328L330.974 86.1223L335.767 87.4789L325.665 89.7684L330.458 91.125L318.586 94.6299L323.379 95.9865L311.507 99.4914L316.3 100.848L304.428 104.353L298.492 106.105L296.095 105.427L297.238 102.318L301.92 96.7782L311.285 85.6986L308.999 91.9167L318.364 80.8371L316.078 87.0552L325.443 75.9757L323.157 82.1937L330.752 72.3295L328.466 78.5476L336.061 68.6835L333.776 74.9016L341.997 66.931L337.942 74.3644L345.648 71.3967Z" fill="#006D00" stroke="black" stroke-width="0.670919"/>
<path d="M345.013 72.7744L296.729 104.05" stroke="black" stroke-width="0.150678"/>
<path d="M311.781 83.9273L303.153 100.228L317.116 100.538" stroke="black" stroke-width="0.150678"/>
<path d="M318.679 79.4594L310.05 95.7606L324.013 96.0703" stroke="black" stroke-width="0.150678"/>
<path d="M325.576 74.9916L316.948 91.2927L330.911 91.6024" stroke="black" stroke-width="0.150678"/>
<path d="M330.692 71.6407L323.874 86.7479L336.084 88.4055" stroke="black" stroke-width="0.150678"/>
<path d="M335.866 68.2898L329.047 83.397L341.257 85.0546" stroke="black" stroke-width="0.150678"/>
<path d="M341.706 67.177L332.555 81.1769L345.645 79.4382" stroke="black" stroke-width="0.150678"/>
<path d="M344.559 141.353L336.934 137.59L340.04 145.379L332.647 136.611L334.084 143.008L327.641 132.434L329.078 138.831L322.635 128.256L324.071 134.654L315.96 122.687L317.397 129.084L309.285 117.117L310.722 123.514L302.61 111.547L298.554 105.564L297.836 102.365L300.455 101.952L306.411 104.323L318.324 109.065L313.086 109.892L324.999 114.635L319.761 115.462L331.674 120.204L326.436 121.032L336.68 124.382L331.442 125.209L341.686 128.559L336.448 129.386L345.742 134.542L338.835 133.977L344.559 141.353Z" fill="#006D00" stroke="black" stroke-width="0.675395"/>
<path d="M344.019 140.501L298.376 103.217" stroke="black" stroke-width="0.151684"/>
<path d="M319.018 109.312L304.54 108.116L311.05 124.61" stroke="black" stroke-width="0.151684"/>
<path d="M325.539 114.638L311.06 113.442L317.57 129.936" stroke="black" stroke-width="0.151684"/>
<path d="M332.059 119.964L317.581 118.768L324.091 135.262" stroke="black" stroke-width="0.151684"/>
<path d="M336.95 123.863L324.129 124.142L328.925 139.257" stroke="black" stroke-width="0.151684"/>
<path d="M341.84 127.857L329.02 128.137L333.815 143.252" stroke="black" stroke-width="0.151684"/>
<path d="M345.645 133.874L332.309 130.799L339.734 145.227" stroke="black" stroke-width="0.151684"/>
<path d="M264.623 144.685L268.52 136.673L262.739 138.093L269.948 131.832L265.402 131.666L273.65 127.074L269.104 126.908L277.352 122.316L272.805 122.15L282.287 115.972L277.741 115.807L287.223 109.628L282.676 109.463L292.158 103.285L296.899 100.195L299.172 100.278L298.978 103.533L296.315 109.96L290.99 122.813L291.38 116.304L286.055 129.157L286.444 122.647L281.119 135.501L281.508 128.991L277.418 140.259L277.807 133.749L273.716 145.016L274.105 138.507L268.975 148.106L270.598 140.01L264.623 144.685Z" fill="#006D00" stroke="black" stroke-width="0.600297"/>
<path d="M264.77 144.46L299.025 100.503" stroke="black" stroke-width="0.134818"/>
<path d="M290.923 123.102L294.217 106.661L282.487 109.546" stroke="black" stroke-width="0.134818"/>
<path d="M286.03 129.382L289.324 112.941L277.594 115.825" stroke="black" stroke-width="0.134818"/>
<path d="M281.136 135.661L284.43 119.22L272.7 122.105" stroke="black" stroke-width="0.134818"/>
<path d="M277.483 140.371L279.529 125.513L269.03 126.789" stroke="black" stroke-width="0.134818"/>
<path d="M273.813 145.081L275.859 130.222L265.36 131.499" stroke="black" stroke-width="0.134818"/>
<path d="M269.073 148.065L273.408 133.364L262.766 137.929" stroke="black" stroke-width="0.134818"/>
<path d="M332.837 40.2136L325.328 47.0111L322.823 38.7647L319.311 49.5343L317.672 44.049L315.123 55.1907L313.823 49.8365L312.236 61.3505L309.635 55.493L308.386 69.5635L305.785 63.706L304.536 77.7764L301.935 71.9189L300.686 85.9894L300.061 93.0248L301.362 95.954L304.587 94.7759L309.738 89.4915L320.038 78.923L313.588 81.2785L323.888 70.71L317.438 73.0655L327.738 62.497L321.287 64.8525L331.926 56.8405L324.175 58.6927L335.776 51.0531L328.363 53.0363L336.4 44.0178L328.987 48.4266L332.837 40.2136Z" fill="#006D00" stroke="black" stroke-width="0.523668"/>
<path d="M331.127 43.3222L319.759 56.6051L299.814 96.6298" stroke="black" stroke-width="0.156987"/>
<path d="M315.932 81.1975L304.716 88.0119L302.07 75.6452" stroke="black" stroke-width="0.156987"/>
<path d="M320.459 72.7855L309.057 79.5152L306.413 67.1604" stroke="black" stroke-width="0.156987"/>
<path d="M324.716 64.2597L313.403 71.035L310.854 58.7074" stroke="black" stroke-width="0.156987"/>
<path d="M328.246 57.8853L317.623 62.5667L315.005 52.5943" stroke="black" stroke-width="0.156987"/>
<path d="M332.316 51.8076L320.822 56.1418L319.085 46.5209" stroke="black" stroke-width="0.156987"/>
<path d="M333.988 45.9178L323.36 53.0284L323.983 40.7895" stroke="black" stroke-width="0.156987"/>
<path d="M294.183 25.8861L297.499 37.2628L301.953 32.2223L301.088 43.9224L304.03 40.5485L302.344 51.8356L304.997 48.3163L302.49 59.1906L306.253 56.2296L302.685 68.9972L306.449 66.0362L302.881 78.8038L306.644 75.8428L303.076 88.6104L301.292 94.9945L299.41 96.4754L297.431 93.0521L295.354 84.7258L291.201 68.0735L295.159 74.9192L291.006 58.2669L294.964 65.1125L290.81 48.4603L294.769 55.3059L289.554 40.547L294.622 47.9509L288.587 32.7792L293.366 40.0377L290.371 26.3953L294.378 35.6926L294.183 25.8861Z" fill="#006D00" stroke="black" stroke-width="0.510278"/>
<path d="M294.831 30.3966L298.641 49.673L299.655 97.5799" stroke="black" stroke-width="0.152973"/>
<path d="M292.726 72.3683L299.329 86.7248L305.545 78.4722" stroke="black" stroke-width="0.152973"/>
<path d="M292.273 62.1401L299.056 76.5665L305.272 68.3231" stroke="black" stroke-width="0.152973"/>
<path d="M292.089 52.0117L298.782 66.4112L304.908 58.1156" stroke="black" stroke-width="0.152973"/>
<path d="M291.615 44.2905L298.522 56.3669L303.977 50.095" stroke="black" stroke-width="0.152973"/>
<path d="M290.603 36.3697L298.322 48.8279L302.955 42.1694" stroke="black" stroke-width="0.152973"/>
<path d="M291.574 30.3068L297.484 44.499L300.998 33.7853" stroke="black" stroke-width="0.152973"/>
<path d="M249.696 104.829L259.121 96.9273L254.13 93.1225L262.725 95.9034L259.619 90.5182L268.048 95.4354L264.942 90.0504L273.37 94.9676L270.264 89.5825L280.412 95.0558L277.306 89.6707L287.288 97.2805L284.182 91.8954L294.33 97.3688L299.321 101.174L300.874 103.866L298.989 105.447L293.666 105.914L285.183 109.74L286.624 105.826L275.978 106.762L279.748 103.601L268.937 106.674L272.706 103.513L263.614 107.142L267.55 101.845L258.291 107.609L262.227 102.313L254.687 108.633L258.789 101.2L249.696 104.829Z" fill="#006D00" stroke="black" stroke-width="0.500066"/>
<path d="M252.82 102.772L262.614 98.2846L267.899 97.8392L272.336 98.1732L280.01 99.5115L286.923 100.56L300.655 103.831" stroke="black" stroke-width="0.141956"/>
<path d="M286.276 106.788L293.996 100.904L285.607 91.2996" stroke="black" stroke-width="0.141956"/>
<path d="M277.636 105.564L287.223 99.3646L278.813 89.7342" stroke="black" stroke-width="0.141956"/>
<path d="M271.589 105.442L280.325 98.9323L271.883 89.9441" stroke="black" stroke-width="0.141956"/>
<path d="M260.141 107.581L268.186 98.3663L261.26 92.5487" stroke="black" stroke-width="0.141956"/>
<path d="M256.609 108.454L262.824 99.4326L257.521 96.2236" stroke="black" stroke-width="0.141956"/>
<path d="M265.446 106.443L273.42 98.2104L266.571 91.3251" stroke="black" stroke-width="0.141956"/>
<path d="M297.173 220.319C294.486 220.37 291.799 220.455 289.133 220.729C287.165 220.968 284.922 221.242 283.007 221.686L282.52 221.823C281.314 222.199 281.145 224.524 281.78 225.789C283.07 228.404 290.72 230.438 299.755 230.438C308.779 230.438 316.428 228.404 317.719 225.789C318.354 224.524 318.185 222.199 316.979 221.823L316.492 221.686C314.588 221.242 312.334 220.968 310.366 220.729C307.7 220.455 305.013 220.37 302.326 220.319H299.755H297.173Z" fill="#FED100"/>
<path d="M301.543 222.814C300.876 222.643 300.262 222.421 299.681 222.182C299.173 221.96 298.697 221.72 298.231 221.464C298.369 221.823 298.57 222.182 299.056 222.455C298.665 222.438 298.147 222.678 297.956 222.814C298.147 222.934 298.686 223.173 299.078 223.156C298.601 223.43 298.422 223.789 298.316 224.148C298.728 223.908 299.173 223.686 299.638 223.481C300.231 223.225 300.855 223.002 301.543 222.814Z" fill="black"/>
<path d="M294.518 222.866C293.851 222.729 293.238 222.541 292.656 222.319C292.137 222.131 291.651 221.908 291.196 221.669C291.323 222.028 291.534 222.37 292.031 222.626C291.629 222.626 291.122 222.9 290.942 223.037C291.132 223.156 291.672 223.361 292.063 223.327C291.598 223.618 291.418 223.994 291.312 224.353C291.725 224.096 292.158 223.84 292.624 223.618C293.216 223.327 293.841 223.088 294.518 222.866Z" fill="black"/>
<path d="M287.546 223.413C286.879 223.344 286.244 223.225 285.652 223.071C285.133 222.934 284.636 222.78 284.171 222.592C284.319 222.934 284.541 223.259 285.049 223.447C284.657 223.498 284.16 223.823 283.98 223.977C284.181 224.062 284.721 224.216 285.112 224.148C284.657 224.49 284.499 224.883 284.414 225.259C284.816 224.951 285.239 224.643 285.694 224.37C286.265 224.011 286.879 223.686 287.546 223.413Z" fill="black"/>
<path d="M308.568 223.037C307.901 223.19 307.277 223.361 306.695 223.584C306.177 223.772 305.69 223.994 305.235 224.25C305.373 223.891 305.574 223.532 306.071 223.293C305.679 223.276 305.161 223.02 304.981 222.883C305.172 222.763 305.711 222.558 306.103 222.575C305.637 222.284 305.457 221.925 305.362 221.549C305.775 221.823 306.208 222.062 306.674 222.302C307.256 222.575 307.88 222.831 308.568 223.037Z" fill="black"/>
<path d="M315.519 223.977C314.852 224.045 314.228 224.148 313.635 224.302C313.117 224.438 312.62 224.609 312.144 224.797C312.302 224.455 312.524 224.131 313.032 223.943C312.63 223.891 312.133 223.567 311.953 223.413C312.154 223.31 312.694 223.156 313.096 223.242C312.641 222.9 312.472 222.507 312.387 222.131C312.789 222.438 313.212 222.729 313.667 223.02C314.238 223.361 314.852 223.686 315.519 223.977Z" fill="black"/>
<path d="M299.755 225.276C288.984 225.276 282.457 226.285 282.996 227.054C286.773 229.601 294.211 230.421 299.755 230.438C305.288 230.421 312.725 229.601 316.502 227.054C317.042 226.285 310.514 225.276 299.755 225.276Z" fill="#FED100"/>
<path d="M316.481 227.105C316.577 226.695 316.153 226.575 315.709 226.49C313.984 226.131 312.07 225.891 310.366 225.686C307.7 225.413 305.013 225.327 302.326 225.276H299.755H297.173C294.486 225.327 291.799 225.413 289.133 225.686C287.429 225.891 285.514 226.131 283.79 226.49C283.345 226.575 282.922 226.695 283.017 227.105" stroke="black" stroke-width="0.286272"/>
<path d="M297.173 220.319C294.486 220.37 291.799 220.455 289.133 220.729C287.165 220.968 284.922 221.242 283.007 221.686L282.52 221.823C281.314 222.199 281.145 224.524 281.78 225.789C283.07 228.404 290.72 230.438 299.755 230.438C308.779 230.438 316.428 228.404 317.719 225.789C318.354 224.524 318.185 222.199 316.979 221.823L316.492 221.686C314.588 221.242 312.334 220.968 310.366 220.729C307.7 220.455 305.013 220.37 302.326 220.319H299.755H297.173Z" stroke="black" stroke-width="0.286272"/>
<path d="M315.943 173.811C317.353 174.317 318.849 175.321 320.028 177.207C321.121 178.955 321.848 181.018 322.267 183.524C322.659 185.869 322.671 187.264 322.496 189.6C322.272 192.605 321.128 195.621 321.128 195.621L319.156 195.053C319.156 195.053 320.344 191.006 320.478 189.213C320.639 187.059 320.634 186.368 320.302 184.385C319.958 182.329 319.46 180.917 318.601 179.544C317.792 178.249 316.651 177.447 315.483 177.009C314.441 176.619 313.264 176.452 312.35 176.757C310.615 177.335 309.487 178.25 307.6 179.212C306.239 179.906 305.199 180.144 303.822 180.27C302.98 180.348 302.007 180.008 301.095 179.694C300.183 179.38 299.419 179.054 299.419 179.054L299.932 175.872C299.932 175.872 300.661 176.184 301.52 176.48C302.38 176.776 303.453 177.017 303.705 176.993C305.003 176.874 305.764 176.699 306.984 176.077C308.731 175.187 309.967 174.2 311.94 173.535C313.269 173.087 314.632 173.342 315.943 173.811Z" fill="#FED100"/>
<path d="M315.943 173.811C317.353 174.317 318.849 175.321 320.028 177.207C321.121 178.955 321.848 181.018 322.267 183.524C322.659 185.869 322.671 187.264 322.496 189.6C322.272 192.605 321.128 195.621 321.128 195.621L319.156 195.053C319.156 195.053 320.344 191.006 320.478 189.213C320.639 187.059 320.634 186.368 320.302 184.385C319.958 182.329 319.46 180.917 318.601 179.544C317.792 178.249 316.651 177.447 315.483 177.009C314.441 176.619 313.264 176.452 312.35 176.757C310.615 177.335 309.487 178.25 307.6 179.212C306.239 179.906 305.199 180.144 303.822 180.27C302.98 180.348 302.007 180.008 301.095 179.694C300.183 179.38 299.419 179.054 299.419 179.054L299.932 175.872C299.932 175.872 300.661 176.184 301.52 176.48C302.38 176.776 303.453 177.017 303.705 176.993C305.003 176.874 305.764 176.699 306.984 176.077C308.731 175.187 309.967 174.2 311.94 173.535C313.269 173.087 314.632 173.342 315.943 173.811Z" stroke="black" stroke-width="0.286432"/>
<path d="M321.41 192.099C321.41 192.335 321.438 192.568 321.493 192.786C321.547 193.004 321.628 193.202 321.729 193.369C321.831 193.535 321.951 193.668 322.084 193.758C322.216 193.848 322.358 193.894 322.502 193.894C322.645 193.894 322.787 193.848 322.92 193.758C323.052 193.668 323.173 193.535 323.274 193.369C323.375 193.202 323.456 193.004 323.511 192.786C323.565 192.568 323.593 192.335 323.593 192.099C323.593 191.864 323.565 191.63 323.511 191.413C323.456 191.195 323.375 190.997 323.274 190.83C323.173 190.663 323.052 190.531 322.92 190.441C322.787 190.351 322.645 190.304 322.502 190.304C322.358 190.304 322.216 190.351 322.084 190.441C321.951 190.531 321.831 190.663 321.729 190.83C321.628 190.997 321.547 191.195 321.493 191.413C321.438 191.63 321.41 191.864 321.41 192.099Z" fill="#FED100" stroke="black" stroke-width="0.286433"/>
<path d="M321.936 187.863C321.935 188.098 321.963 188.332 322.018 188.549C322.073 188.767 322.153 188.965 322.255 189.132C322.356 189.299 322.477 189.431 322.609 189.521C322.742 189.611 322.884 189.658 323.027 189.658C323.171 189.658 323.313 189.611 323.445 189.521C323.578 189.431 323.698 189.299 323.8 189.132C323.901 188.965 323.981 188.767 324.036 188.549C324.091 188.332 324.119 188.098 324.119 187.863C324.119 187.627 324.091 187.394 324.036 187.176C323.981 186.958 323.901 186.76 323.8 186.593C323.698 186.427 323.578 186.294 323.445 186.204C323.313 186.114 323.171 186.067 323.027 186.067C322.884 186.067 322.742 186.114 322.609 186.204C322.477 186.294 322.356 186.427 322.255 186.593C322.153 186.76 322.073 186.958 322.018 187.176C321.963 187.394 321.935 187.627 321.936 187.863Z" fill="#FED100" stroke="black" stroke-width="0.286433"/>
<path d="M321.777 183.381C321.777 183.617 321.805 183.85 321.86 184.068C321.914 184.285 321.995 184.483 322.096 184.65C322.198 184.817 322.318 184.949 322.45 185.039C322.583 185.13 322.725 185.176 322.869 185.176C323.012 185.176 323.154 185.13 323.287 185.039C323.419 184.949 323.54 184.817 323.641 184.65C323.742 184.483 323.823 184.285 323.878 184.068C323.932 183.85 323.96 183.617 323.96 183.381C323.96 183.145 323.932 182.912 323.878 182.694C323.823 182.476 323.742 182.278 323.641 182.112C323.54 181.945 323.419 181.813 323.287 181.722C323.154 181.632 323.012 181.586 322.869 181.586C322.725 181.586 322.583 181.632 322.45 181.722C322.318 181.813 322.198 181.945 322.096 182.112C321.995 182.278 321.914 182.476 321.86 182.694C321.805 182.912 321.777 183.145 321.777 183.381Z" fill="#FED100" stroke="black" stroke-width="0.286433"/>
<path d="M320.71 179.129C320.71 179.365 320.738 179.598 320.793 179.816C320.848 180.034 320.928 180.231 321.029 180.398C321.131 180.565 321.251 180.697 321.384 180.787C321.516 180.878 321.658 180.924 321.802 180.924C321.945 180.924 322.087 180.878 322.22 180.787C322.352 180.697 322.473 180.565 322.574 180.398C322.676 180.231 322.756 180.034 322.811 179.816C322.865 179.598 322.894 179.365 322.893 179.129C322.894 178.893 322.865 178.66 322.811 178.442C322.756 178.224 322.676 178.026 322.574 177.86C322.473 177.693 322.352 177.561 322.22 177.47C322.087 177.38 321.945 177.334 321.802 177.334C321.658 177.334 321.516 177.38 321.384 177.47C321.251 177.561 321.131 177.693 321.029 177.86C320.928 178.026 320.848 178.224 320.793 178.442C320.738 178.66 320.71 178.893 320.71 179.129Z" fill="#FED100" stroke="black" stroke-width="0.286433"/>
<path d="M318.719 175.796C318.718 176.032 318.747 176.265 318.801 176.483C318.856 176.701 318.936 176.899 319.038 177.066C319.139 177.232 319.26 177.365 319.392 177.455C319.525 177.545 319.667 177.592 319.81 177.592C319.954 177.592 320.096 177.545 320.228 177.455C320.361 177.365 320.481 177.232 320.583 177.066C320.684 176.899 320.764 176.701 320.819 176.483C320.874 176.265 320.902 176.032 320.902 175.796C320.902 175.561 320.874 175.327 320.819 175.11C320.764 174.892 320.684 174.694 320.583 174.527C320.481 174.36 320.361 174.228 320.228 174.138C320.096 174.048 319.954 174.001 319.81 174.001C319.667 174.001 319.525 174.048 319.392 174.138C319.26 174.228 319.139 174.36 319.038 174.527C318.936 174.694 318.856 174.892 318.801 175.11C318.747 175.327 318.718 175.561 318.719 175.796Z" fill="#FED100" stroke="black" stroke-width="0.286433"/>
<path d="M316.229 173.613C316.229 173.849 316.257 174.082 316.312 174.3C316.367 174.517 316.447 174.715 316.548 174.882C316.65 175.049 316.77 175.181 316.903 175.271C317.035 175.362 317.177 175.408 317.321 175.408C317.464 175.408 317.606 175.362 317.739 175.271C317.872 175.181 317.992 175.049 318.093 174.882C318.195 174.715 318.275 174.517 318.33 174.3C318.385 174.082 318.413 173.849 318.413 173.613C318.413 173.377 318.385 173.144 318.33 172.926C318.275 172.708 318.195 172.51 318.093 172.344C317.992 172.177 317.872 172.045 317.739 171.954C317.606 171.864 317.464 171.818 317.321 171.818C317.177 171.818 317.035 171.864 316.903 171.954C316.77 172.045 316.65 172.177 316.548 172.344C316.447 172.51 316.367 172.708 316.312 172.926C316.257 173.144 316.229 173.377 316.229 173.613Z" fill="#FED100" stroke="black" stroke-width="0.286433"/>
<path d="M313.384 172.464C313.384 172.699 313.412 172.933 313.467 173.151C313.522 173.368 313.602 173.566 313.704 173.733C313.805 173.9 313.925 174.032 314.058 174.122C314.19 174.213 314.333 174.259 314.476 174.259C314.62 174.259 314.762 174.213 314.894 174.122C315.027 174.032 315.147 173.9 315.248 173.733C315.35 173.566 315.43 173.368 315.485 173.151C315.54 172.933 315.568 172.699 315.568 172.464C315.568 172.228 315.54 171.995 315.485 171.777C315.43 171.559 315.35 171.361 315.248 171.195C315.147 171.028 315.027 170.896 314.894 170.805C314.762 170.715 314.62 170.669 314.476 170.669C314.333 170.669 314.19 170.715 314.058 170.805C313.925 170.896 313.805 171.028 313.704 171.195C313.602 171.361 313.522 171.559 313.467 171.777C313.412 171.995 313.384 172.228 313.384 172.464Z" fill="#FED100" stroke="black" stroke-width="0.286433"/>
<path d="M310.468 172.694C310.468 172.929 310.496 173.163 310.551 173.38C310.606 173.598 310.686 173.796 310.787 173.963C310.889 174.13 311.009 174.262 311.142 174.352C311.274 174.442 311.416 174.489 311.56 174.489C311.703 174.489 311.845 174.442 311.978 174.352C312.111 174.262 312.231 174.13 312.332 173.963C312.434 173.796 312.514 173.598 312.569 173.38C312.624 173.163 312.652 172.929 312.652 172.694C312.652 172.458 312.624 172.225 312.569 172.007C312.514 171.789 312.434 171.591 312.332 171.424C312.231 171.258 312.111 171.125 311.978 171.035C311.845 170.945 311.703 170.898 311.56 170.898C311.416 170.898 311.274 170.945 311.142 171.035C311.009 171.125 310.889 171.258 310.787 171.424C310.686 171.591 310.606 171.789 310.551 172.007C310.496 172.225 310.468 172.458 310.468 172.694Z" fill="#FED100" stroke="black" stroke-width="0.286433"/>
<path d="M302.574 176.026C302.573 176.262 302.601 176.495 302.656 176.713C302.711 176.931 302.791 177.129 302.893 177.295C302.994 177.462 303.115 177.594 303.247 177.685C303.38 177.775 303.522 177.821 303.665 177.821C303.809 177.821 303.951 177.775 304.083 177.685C304.216 177.594 304.336 177.462 304.438 177.295C304.539 177.129 304.619 176.931 304.674 176.713C304.729 176.495 304.757 176.262 304.757 176.026C304.757 175.791 304.729 175.557 304.674 175.339C304.619 175.122 304.539 174.924 304.438 174.757C304.336 174.59 304.216 174.458 304.083 174.368C303.951 174.277 303.809 174.231 303.665 174.231C303.522 174.231 303.38 174.277 303.247 174.368C303.115 174.458 302.994 174.59 302.893 174.757C302.791 174.924 302.711 175.122 302.656 175.339C302.601 175.557 302.573 175.791 302.574 176.026Z" fill="#FED100" stroke="black" stroke-width="0.286433"/>
<path d="M307.695 173.958C307.694 174.193 307.722 174.427 307.777 174.645C307.832 174.862 307.912 175.06 308.014 175.227C308.115 175.394 308.236 175.526 308.368 175.616C308.501 175.706 308.643 175.753 308.786 175.753C308.93 175.753 309.072 175.706 309.204 175.616C309.337 175.526 309.457 175.394 309.559 175.227C309.66 175.06 309.74 174.862 309.795 174.645C309.85 174.427 309.878 174.193 309.878 173.958C309.878 173.722 309.85 173.489 309.795 173.271C309.74 173.053 309.66 172.855 309.559 172.688C309.457 172.522 309.337 172.389 309.204 172.299C309.072 172.209 308.93 172.163 308.786 172.163C308.643 172.163 308.501 172.209 308.368 172.299C308.236 172.389 308.115 172.522 308.014 172.688C307.912 172.855 307.832 173.053 307.777 173.271C307.722 173.489 307.694 173.722 307.695 173.958Z" fill="#FED100" stroke="black" stroke-width="0.286433"/>
<path d="M305.134 175.222C305.134 175.457 305.162 175.691 305.217 175.909C305.271 176.126 305.352 176.324 305.453 176.491C305.555 176.658 305.675 176.79 305.808 176.88C305.94 176.971 306.082 177.017 306.226 177.017C306.369 177.017 306.511 176.971 306.644 176.88C306.776 176.79 306.897 176.658 306.998 176.491C307.1 176.324 307.18 176.126 307.235 175.909C307.289 175.691 307.318 175.457 307.317 175.222C307.318 174.986 307.289 174.753 307.235 174.535C307.18 174.317 307.1 174.119 306.998 173.953C306.897 173.786 306.776 173.654 306.644 173.563C306.511 173.473 306.369 173.427 306.226 173.427C306.082 173.427 305.94 173.473 305.808 173.563C305.675 173.654 305.555 173.786 305.453 173.953C305.352 174.119 305.271 174.317 305.217 174.535C305.162 174.753 305.134 174.986 305.134 175.222Z" fill="#FED100" stroke="black" stroke-width="0.286433"/>
<path d="M283.556 173.811C282.145 174.317 280.649 175.321 279.47 177.207C278.377 178.955 277.651 181.018 277.232 183.524C276.84 185.869 276.828 187.264 277.002 189.6C277.226 192.605 278.37 195.621 278.37 195.621L280.343 195.053C280.343 195.053 279.154 191.006 279.02 189.213C278.86 187.059 278.865 186.368 279.196 184.385C279.54 182.329 280.039 180.917 280.897 179.544C281.707 178.249 282.847 177.447 284.015 177.009C285.057 176.619 286.234 176.452 287.148 176.757C288.884 177.335 290.011 178.25 291.898 179.212C293.259 179.906 294.3 180.144 295.676 180.27C296.518 180.348 297.491 180.008 298.403 179.694C299.315 179.38 300.08 179.054 300.08 179.054L299.566 175.872C299.566 175.872 298.837 176.184 297.978 176.48C297.119 176.776 296.045 177.017 295.793 176.993C294.496 176.874 293.734 176.699 292.514 176.077C290.767 175.187 289.531 174.2 287.558 173.535C286.229 173.087 284.866 173.342 283.556 173.811Z" fill="#FED100"/>
<path d="M283.556 173.811C282.145 174.317 280.649 175.321 279.47 177.207C278.377 178.955 277.651 181.018 277.232 183.524C276.84 185.869 276.828 187.264 277.002 189.6C277.226 192.605 278.37 195.621 278.37 195.621L280.343 195.053C280.343 195.053 279.154 191.006 279.02 189.213C278.86 187.059 278.865 186.368 279.196 184.385C279.54 182.329 280.039 180.917 280.897 179.544C281.707 178.249 282.847 177.447 284.015 177.009C285.057 176.619 286.234 176.452 287.148 176.757C288.884 177.335 290.011 178.25 291.898 179.212C293.259 179.906 294.3 180.144 295.676 180.27C296.518 180.348 297.491 180.008 298.403 179.694C299.315 179.38 300.08 179.054 300.08 179.054L299.566 175.872C299.566 175.872 298.837 176.184 297.978 176.48C297.119 176.776 296.045 177.017 295.793 176.993C294.496 176.874 293.734 176.699 292.514 176.077C290.767 175.187 289.531 174.2 287.558 173.535C286.229 173.087 284.866 173.342 283.556 173.811Z" stroke="black" stroke-width="0.286432"/>
<path d="M278.088 192.099C278.089 192.335 278.061 192.568 278.006 192.786C277.951 193.004 277.871 193.202 277.769 193.369C277.668 193.535 277.547 193.668 277.415 193.758C277.282 193.848 277.14 193.894 276.997 193.894C276.853 193.894 276.711 193.848 276.579 193.758C276.446 193.668 276.326 193.535 276.224 193.369C276.123 193.202 276.043 193.004 275.988 192.786C275.933 192.568 275.905 192.335 275.905 192.099C275.905 191.864 275.933 191.63 275.988 191.413C276.043 191.195 276.123 190.997 276.224 190.83C276.326 190.663 276.446 190.531 276.579 190.441C276.711 190.351 276.853 190.304 276.997 190.304C277.14 190.304 277.282 190.351 277.415 190.441C277.547 190.531 277.668 190.663 277.769 190.83C277.871 190.997 277.951 191.195 278.006 191.413C278.061 191.63 278.089 191.864 278.088 192.099Z" fill="#FED100" stroke="black" stroke-width="0.286433"/>
<path d="M277.563 187.863C277.563 188.098 277.535 188.332 277.48 188.549C277.425 188.767 277.345 188.965 277.244 189.132C277.142 189.299 277.022 189.431 276.889 189.521C276.757 189.611 276.615 189.658 276.471 189.658C276.328 189.658 276.186 189.611 276.053 189.521C275.921 189.431 275.8 189.299 275.699 189.132C275.597 188.965 275.517 188.767 275.462 188.549C275.407 188.332 275.379 188.098 275.38 187.863C275.379 187.627 275.407 187.394 275.462 187.176C275.517 186.958 275.597 186.76 275.699 186.593C275.8 186.427 275.921 186.294 276.053 186.204C276.186 186.114 276.328 186.067 276.471 186.067C276.615 186.067 276.757 186.114 276.889 186.204C277.022 186.294 277.142 186.427 277.244 186.593C277.345 186.76 277.425 186.958 277.48 187.176C277.535 187.394 277.563 187.627 277.563 187.863Z" fill="#FED100" stroke="black" stroke-width="0.286433"/>
<path d="M277.721 183.381C277.722 183.617 277.694 183.85 277.639 184.068C277.584 184.285 277.504 184.483 277.402 184.65C277.301 184.817 277.18 184.949 277.048 185.039C276.915 185.13 276.773 185.176 276.63 185.176C276.486 185.176 276.344 185.13 276.212 185.039C276.079 184.949 275.959 184.817 275.857 184.65C275.756 184.483 275.676 184.285 275.621 184.068C275.566 183.85 275.538 183.617 275.538 183.381C275.538 183.145 275.566 182.912 275.621 182.694C275.676 182.476 275.756 182.278 275.857 182.112C275.959 181.945 276.079 181.813 276.212 181.722C276.344 181.632 276.486 181.586 276.63 181.586C276.773 181.586 276.915 181.632 277.048 181.722C277.18 181.813 277.301 181.945 277.402 182.112C277.504 182.278 277.584 182.476 277.639 182.694C277.694 182.912 277.722 183.145 277.721 183.381Z" fill="#FED100" stroke="black" stroke-width="0.286433"/>
<path d="M278.788 179.129C278.789 179.365 278.76 179.598 278.706 179.816C278.651 180.034 278.571 180.231 278.469 180.398C278.368 180.565 278.247 180.697 278.115 180.787C277.982 180.878 277.84 180.924 277.697 180.924C277.553 180.924 277.411 180.878 277.279 180.787C277.146 180.697 277.026 180.565 276.924 180.398C276.823 180.231 276.743 180.034 276.688 179.816C276.633 179.598 276.605 179.365 276.605 179.129C276.605 178.893 276.633 178.66 276.688 178.442C276.743 178.224 276.823 178.026 276.924 177.86C277.026 177.693 277.146 177.561 277.279 177.47C277.411 177.38 277.553 177.334 277.697 177.334C277.84 177.334 277.982 177.38 278.115 177.47C278.247 177.561 278.368 177.693 278.469 177.86C278.571 178.026 278.651 178.224 278.706 178.442C278.76 178.66 278.789 178.893 278.788 179.129Z" fill="#FED100" stroke="black" stroke-width="0.286433"/>
<path d="M280.78 175.796C280.78 176.032 280.752 176.265 280.697 176.483C280.642 176.701 280.562 176.899 280.461 177.066C280.359 177.232 280.239 177.365 280.106 177.455C279.974 177.545 279.832 177.592 279.688 177.592C279.545 177.592 279.403 177.545 279.27 177.455C279.137 177.365 279.017 177.232 278.916 177.066C278.814 176.899 278.734 176.701 278.679 176.483C278.624 176.265 278.596 176.032 278.596 175.796C278.596 175.561 278.624 175.327 278.679 175.11C278.734 174.892 278.814 174.694 278.916 174.527C279.017 174.36 279.137 174.228 279.27 174.138C279.403 174.048 279.545 174.001 279.688 174.001C279.832 174.001 279.974 174.048 280.106 174.138C280.239 174.228 280.359 174.36 280.461 174.527C280.562 174.694 280.642 174.892 280.697 175.11C280.752 175.327 280.78 175.561 280.78 175.796Z" fill="#FED100" stroke="black" stroke-width="0.286433"/>
<path d="M283.269 173.613C283.269 173.849 283.241 174.082 283.186 174.3C283.132 174.517 283.051 174.715 282.95 174.882C282.849 175.049 282.728 175.181 282.596 175.271C282.463 175.362 282.321 175.408 282.177 175.408C282.034 175.408 281.892 175.362 281.759 175.271C281.627 175.181 281.506 175.049 281.405 174.882C281.304 174.715 281.223 174.517 281.168 174.3C281.114 174.082 281.086 173.849 281.086 173.613C281.086 173.377 281.114 173.144 281.168 172.926C281.223 172.708 281.304 172.51 281.405 172.344C281.506 172.177 281.627 172.045 281.759 171.954C281.892 171.864 282.034 171.818 282.177 171.818C282.321 171.818 282.463 171.864 282.596 171.954C282.728 172.045 282.849 172.177 282.95 172.344C283.051 172.51 283.132 172.708 283.186 172.926C283.241 173.144 283.269 173.377 283.269 173.613Z" fill="#FED100" stroke="black" stroke-width="0.286433"/>
<path d="M286.114 172.464C286.114 172.699 286.086 172.933 286.031 173.151C285.977 173.368 285.896 173.566 285.795 173.733C285.693 173.9 285.573 174.032 285.44 174.122C285.308 174.213 285.166 174.259 285.022 174.259C284.879 174.259 284.737 174.213 284.604 174.122C284.472 174.032 284.351 173.9 284.25 173.733C284.149 173.566 284.068 173.368 284.013 173.151C283.959 172.933 283.931 172.699 283.931 172.464C283.931 172.228 283.959 171.995 284.013 171.777C284.068 171.559 284.149 171.361 284.25 171.195C284.351 171.028 284.472 170.896 284.604 170.805C284.737 170.715 284.879 170.669 285.022 170.669C285.166 170.669 285.308 170.715 285.44 170.805C285.573 170.896 285.693 171.028 285.795 171.195C285.896 171.361 285.977 171.559 286.031 171.777C286.086 171.995 286.114 172.228 286.114 172.464Z" fill="#FED100" stroke="black" stroke-width="0.286433"/>
<path d="M289.03 172.694C289.03 172.929 289.002 173.163 288.947 173.38C288.893 173.598 288.812 173.796 288.711 173.963C288.609 174.13 288.489 174.262 288.357 174.352C288.224 174.442 288.082 174.489 287.938 174.489C287.795 174.489 287.653 174.442 287.52 174.352C287.388 174.262 287.267 174.13 287.166 173.963C287.065 173.796 286.984 173.598 286.929 173.38C286.875 173.163 286.847 172.929 286.847 172.694C286.847 172.458 286.875 172.225 286.929 172.007C286.984 171.789 287.065 171.591 287.166 171.424C287.267 171.258 287.388 171.125 287.52 171.035C287.653 170.945 287.795 170.898 287.938 170.898C288.082 170.898 288.224 170.945 288.357 171.035C288.489 171.125 288.609 171.258 288.711 171.424C288.812 171.591 288.893 171.789 288.947 172.007C289.002 172.225 289.03 172.458 289.03 172.694Z" fill="#FED100" stroke="black" stroke-width="0.286433"/>
<path d="M296.925 176.026C296.925 176.262 296.897 176.495 296.842 176.713C296.787 176.931 296.707 177.129 296.606 177.295C296.504 177.462 296.384 177.594 296.251 177.685C296.119 177.775 295.977 177.821 295.833 177.821C295.69 177.821 295.548 177.775 295.415 177.685C295.282 177.594 295.162 177.462 295.061 177.295C294.959 177.129 294.879 176.931 294.824 176.713C294.769 176.495 294.741 176.262 294.741 176.026C294.741 175.791 294.769 175.557 294.824 175.339C294.879 175.122 294.959 174.924 295.061 174.757C295.162 174.59 295.282 174.458 295.415 174.368C295.548 174.277 295.69 174.231 295.833 174.231C295.977 174.231 296.119 174.277 296.251 174.368C296.384 174.458 296.504 174.59 296.606 174.757C296.707 174.924 296.787 175.122 296.842 175.339C296.897 175.557 296.925 175.791 296.925 176.026Z" fill="#FED100" stroke="black" stroke-width="0.286433"/>
<path d="M291.804 173.958C291.804 174.193 291.776 174.427 291.721 174.645C291.666 174.862 291.586 175.06 291.485 175.227C291.383 175.394 291.263 175.526 291.13 175.616C290.998 175.706 290.856 175.753 290.712 175.753C290.569 175.753 290.427 175.706 290.294 175.616C290.162 175.526 290.041 175.394 289.94 175.227C289.838 175.06 289.758 174.862 289.703 174.645C289.648 174.427 289.62 174.193 289.621 173.958C289.62 173.722 289.648 173.489 289.703 173.271C289.758 173.053 289.838 172.855 289.94 172.688C290.041 172.522 290.162 172.389 290.294 172.299C290.427 172.209 290.569 172.163 290.712 172.163C290.856 172.163 290.998 172.209 291.13 172.299C291.263 172.389 291.383 172.522 291.485 172.688C291.586 172.855 291.666 173.053 291.721 173.271C291.776 173.489 291.804 173.722 291.804 173.958Z" fill="#FED100" stroke="black" stroke-width="0.286433"/>
<path d="M294.364 175.222C294.365 175.457 294.336 175.691 294.282 175.909C294.227 176.126 294.146 176.324 294.045 176.491C293.944 176.658 293.823 176.79 293.691 176.88C293.558 176.971 293.416 177.017 293.273 177.017C293.129 177.017 292.987 176.971 292.855 176.88C292.722 176.79 292.602 176.658 292.5 176.491C292.399 176.324 292.318 176.126 292.264 175.909C292.209 175.691 292.181 175.457 292.181 175.222C292.181 174.986 292.209 174.753 292.264 174.535C292.318 174.317 292.399 174.119 292.5 173.953C292.602 173.786 292.722 173.654 292.855 173.563C292.987 173.473 293.129 173.427 293.273 173.427C293.416 173.427 293.558 173.473 293.691 173.563C293.823 173.654 293.944 173.786 294.045 173.953C294.146 174.119 294.227 174.317 294.282 174.535C294.336 174.753 294.365 174.986 294.364 175.222Z" fill="#FED100" stroke="black" stroke-width="0.286433"/>
<path d="M297.086 167.863C297.382 167.257 297.736 166.806 298.024 166.189C298.325 165.541 298.555 164.722 298.674 163.895C298.149 164.106 297.642 164.478 297.241 164.966C296.86 165.43 296.581 166.002 296.205 166.481V158.712C296.581 159.191 296.86 159.763 297.241 160.227C297.642 160.715 298.149 161.086 298.674 161.298C298.555 160.471 298.325 159.652 298.024 159.004C297.736 158.387 297.382 157.936 297.086 157.33L302.413 157.33C302.116 157.936 301.762 158.387 301.475 159.004C301.173 159.652 300.943 160.471 300.825 161.298C301.349 161.086 301.856 160.715 302.257 160.227C302.639 159.763 302.918 159.191 303.293 158.712V166.481C302.918 166.002 302.639 165.43 302.257 164.966C301.856 164.478 301.349 164.106 300.825 163.895C300.943 164.722 301.173 165.541 301.475 166.189C301.762 166.806 302.116 167.257 302.413 167.863H297.086Z" fill="#FED100" stroke="black" stroke-width="0.286432"/>
<path d="M301.07 162.596C301.07 162.882 301.036 163.164 300.97 163.427C300.904 163.691 300.807 163.93 300.684 164.132C300.561 164.334 300.415 164.494 300.255 164.603C300.095 164.712 299.923 164.769 299.749 164.769C299.576 164.769 299.404 164.712 299.243 164.603C299.083 164.494 298.937 164.334 298.815 164.132C298.692 163.93 298.595 163.691 298.528 163.427C298.462 163.164 298.428 162.882 298.428 162.596C298.428 162.311 298.462 162.029 298.528 161.765C298.595 161.502 298.692 161.262 298.815 161.061C298.937 160.859 299.083 160.699 299.243 160.59C299.404 160.48 299.576 160.424 299.749 160.424C299.923 160.424 300.095 160.48 300.255 160.59C300.415 160.699 300.561 160.859 300.684 161.061C300.807 161.262 300.904 161.502 300.97 161.765C301.036 162.029 301.07 162.311 301.07 162.596Z" fill="#FED100" stroke="black" stroke-width="0.286432"/>
<path d="M302.747 172.732C302.748 173.368 302.671 173.999 302.52 174.587C302.37 175.176 302.149 175.711 301.871 176.161C301.592 176.612 301.261 176.969 300.897 177.213C300.533 177.457 300.143 177.582 299.749 177.582C299.355 177.582 298.965 177.457 298.601 177.213C298.237 176.969 297.906 176.612 297.628 176.161C297.349 175.711 297.129 175.176 296.978 174.587C296.828 173.999 296.751 173.368 296.751 172.732C296.751 172.095 296.828 171.464 296.978 170.876C297.129 170.287 297.349 169.752 297.628 169.302C297.906 168.851 298.237 168.494 298.601 168.25C298.965 168.006 299.355 167.881 299.749 167.881C300.143 167.881 300.533 168.006 300.897 168.25C301.261 168.494 301.592 168.851 301.871 169.302C302.149 169.752 302.37 170.287 302.52 170.876C302.671 171.464 302.748 172.095 302.747 172.732Z" fill="#FED100"/>
<path d="M302.747 172.732C302.748 173.368 302.671 173.999 302.52 174.587C302.37 175.176 302.149 175.711 301.871 176.161C301.592 176.612 301.261 176.969 300.897 177.213C300.533 177.457 300.143 177.582 299.749 177.582C299.355 177.582 298.965 177.457 298.601 177.213C298.237 176.969 297.906 176.612 297.628 176.161C297.349 175.711 297.129 175.176 296.978 174.587C296.828 173.999 296.751 173.368 296.751 172.732C296.751 172.095 296.828 171.464 296.978 170.876C297.129 170.287 297.349 169.752 297.628 169.302C297.906 168.851 298.237 168.494 298.601 168.25C298.965 168.006 299.355 167.881 299.749 167.881C300.143 167.881 300.533 168.006 300.897 168.25C301.261 168.494 301.592 168.851 301.871 169.302C302.149 169.752 302.37 170.287 302.52 170.876C302.671 171.464 302.748 172.095 302.747 172.732Z" stroke="black" stroke-width="0.286432"/>
<path d="M299.109 167.515V171.581H296.592V173.652H302.907V171.581H300.385V167.515H299.109Z" fill="#FED100"/>
<path d="M299.109 167.515V171.581H296.592V173.652H302.907V171.581H300.385V167.515H299.109Z" stroke="black" stroke-width="0.286431"/>
<path d="M300.731 176.575H298.768C298.216 176.575 297.769 177.297 297.769 178.188V193.084C297.769 193.975 298.216 194.697 298.768 194.697H300.731C301.282 194.697 301.729 193.975 301.729 193.084V178.188C301.729 177.297 301.282 176.575 300.731 176.575Z" fill="#FED100"/>
<path d="M300.731 176.575H298.768C298.216 176.575 297.769 177.297 297.769 178.188V193.084C297.769 193.975 298.216 194.697 298.768 194.697H300.731C301.282 194.697 301.729 193.975 301.729 193.084V178.188C301.729 177.297 301.282 176.575 300.731 176.575Z" stroke="black" stroke-width="0.286432"/>
<path d="M298.251 177.427C298.251 176.946 297.968 176.557 297.62 176.557C297.271 176.557 296.988 176.946 296.988 177.427V193.845C296.988 194.326 297.271 194.716 297.62 194.716C297.968 194.716 298.251 194.326 298.251 193.845V177.427Z" fill="#FED100"/>
<path d="M297.62 176.557C297.969 176.557 298.251 176.945 298.251 177.427V193.845C298.251 194.327 297.969 194.716 297.62 194.716C297.27 194.716 296.988 194.327 296.988 193.845V177.427C296.988 176.945 297.27 176.557 297.62 176.557Z" stroke="black" stroke-width="0.286431"/>
<path d="M302.51 177.427C302.51 176.946 302.228 176.557 301.879 176.557C301.53 176.557 301.247 176.946 301.247 177.427V193.845C301.247 194.326 301.53 194.716 301.879 194.716C302.228 194.716 302.51 194.326 302.51 193.845V177.427Z" fill="#FED100"/>
<path d="M302.51 177.427C302.51 176.946 302.228 176.557 301.879 176.557C301.53 176.557 301.247 176.946 301.247 177.427V193.845C301.247 194.326 301.53 194.716 301.879 194.716C302.228 194.716 302.51 194.326 302.51 193.845V177.427Z" stroke="black" stroke-width="0.286431"/>
<path d="M300.841 176.961C300.841 177.196 300.813 177.43 300.758 177.647C300.703 177.865 300.623 178.063 300.522 178.23C300.42 178.397 300.3 178.529 300.167 178.619C300.035 178.709 299.893 178.756 299.749 178.756C299.606 178.756 299.464 178.709 299.331 178.619C299.199 178.529 299.078 178.397 298.977 178.23C298.875 178.063 298.795 177.865 298.74 177.647C298.685 177.43 298.657 177.196 298.658 176.961C298.657 176.725 298.685 176.492 298.74 176.274C298.795 176.056 298.875 175.858 298.977 175.691C299.078 175.525 299.199 175.392 299.331 175.302C299.464 175.212 299.606 175.165 299.749 175.165C299.893 175.165 300.035 175.212 300.167 175.302C300.3 175.392 300.42 175.525 300.522 175.691C300.623 175.858 300.703 176.056 300.758 176.274C300.813 176.492 300.841 176.725 300.841 176.961Z" fill="#FED100" stroke="black" stroke-width="0.286433"/>
<path d="M300.841 180.525C300.841 180.761 300.813 180.994 300.758 181.212C300.703 181.43 300.623 181.628 300.522 181.794C300.42 181.961 300.3 182.093 300.167 182.184C300.035 182.274 299.893 182.32 299.749 182.32C299.606 182.32 299.464 182.274 299.331 182.184C299.199 182.093 299.078 181.961 298.977 181.794C298.875 181.628 298.795 181.43 298.74 181.212C298.685 180.994 298.657 180.761 298.658 180.525C298.657 180.29 298.685 180.056 298.74 179.838C298.795 179.621 298.875 179.423 298.977 179.256C299.078 179.089 299.199 178.957 299.331 178.867C299.464 178.776 299.606 178.73 299.749 178.73C299.893 178.73 300.035 178.776 300.167 178.867C300.3 178.957 300.42 179.089 300.522 179.256C300.623 179.423 300.703 179.621 300.758 179.838C300.813 180.056 300.841 180.29 300.841 180.525Z" fill="#FED100" stroke="black" stroke-width="0.286433"/>
<path d="M300.841 184.095C300.841 184.331 300.813 184.564 300.758 184.782C300.703 185 300.623 185.198 300.522 185.364C300.42 185.531 300.3 185.663 300.167 185.754C300.035 185.844 299.893 185.89 299.749 185.89C299.606 185.89 299.464 185.844 299.331 185.754C299.199 185.663 299.078 185.531 298.977 185.364C298.875 185.198 298.795 185 298.74 184.782C298.685 184.564 298.657 184.331 298.658 184.095C298.657 183.859 298.685 183.626 298.74 183.408C298.795 183.191 298.875 182.993 298.977 182.826C299.078 182.659 299.199 182.527 299.331 182.437C299.464 182.346 299.606 182.3 299.749 182.3C299.893 182.3 300.035 182.346 300.167 182.437C300.3 182.527 300.42 182.659 300.522 182.826C300.623 182.993 300.703 183.191 300.758 183.408C300.813 183.626 300.841 183.859 300.841 184.095Z" fill="#FED100" stroke="black" stroke-width="0.286433"/>
<path d="M300.841 187.665C300.841 187.901 300.813 188.134 300.758 188.352C300.703 188.57 300.623 188.767 300.522 188.934C300.42 189.101 300.3 189.233 300.167 189.323C300.035 189.414 299.893 189.46 299.749 189.46C299.606 189.46 299.464 189.414 299.331 189.323C299.199 189.233 299.078 189.101 298.977 188.934C298.875 188.767 298.795 188.57 298.74 188.352C298.685 188.134 298.657 187.901 298.658 187.665C298.657 187.429 298.685 187.196 298.74 186.978C298.795 186.76 298.875 186.562 298.977 186.396C299.078 186.229 299.199 186.097 299.331 186.006C299.464 185.916 299.606 185.87 299.749 185.87C299.893 185.87 300.035 185.916 300.167 186.006C300.3 186.097 300.42 186.229 300.522 186.396C300.623 186.562 300.703 186.76 300.758 186.978C300.813 187.196 300.841 187.429 300.841 187.665Z" fill="#FED100" stroke="black" stroke-width="0.286433"/>
<path d="M300.841 191.235C300.841 191.47 300.813 191.704 300.758 191.922C300.703 192.139 300.623 192.337 300.522 192.504C300.42 192.671 300.3 192.803 300.167 192.893C300.035 192.984 299.893 193.03 299.749 193.03C299.606 193.03 299.464 192.984 299.331 192.893C299.199 192.803 299.078 192.671 298.977 192.504C298.875 192.337 298.795 192.139 298.74 191.922C298.685 191.704 298.657 191.47 298.658 191.235C298.657 190.999 298.685 190.766 298.74 190.548C298.795 190.33 298.875 190.132 298.977 189.966C299.078 189.799 299.199 189.667 299.331 189.576C299.464 189.486 299.606 189.44 299.749 189.44C299.893 189.44 300.035 189.486 300.167 189.576C300.3 189.667 300.42 189.799 300.522 189.966C300.623 190.132 300.703 190.33 300.758 190.548C300.813 190.766 300.841 190.999 300.841 191.235Z" fill="#FED100" stroke="black" stroke-width="0.286433"/>
<path d="M319.353 202.566C318.303 206.362 317.461 210.068 316.636 213.882H299.697H282.758C281.961 210.196 281.148 206.23 280.145 202.566C280.145 202.566 282.253 207.333 283.832 208.486C284.709 209.126 285.806 209.317 286.713 208.796C287.908 208.11 289.498 204.607 289.498 204.607C289.498 204.607 290.928 207.31 291.899 208.02C292.81 208.687 293.876 208.714 294.876 208.641C295.76 208.576 296.74 208.522 297.469 207.71C298.572 206.48 299.677 202.279 299.677 202.279C299.677 202.279 300.747 205.584 301.598 206.779C302.3 207.765 303.182 208.501 304.095 208.796C305.007 209.091 306.004 208.996 306.88 208.486C308.066 207.795 309.953 204.917 309.953 204.917C309.953 204.917 311.251 207.519 312.161 208.175C313.043 208.811 314.103 208.998 315.042 208.641C316.036 208.263 316.872 207.099 317.635 206.003C318.316 205.025 319.353 202.566 319.353 202.566Z" fill="#FED100"/>
<path d="M319.353 202.566C318.303 206.362 317.461 210.068 316.636 213.882H312.212H299.697H286.779H282.758C281.961 210.196 281.148 206.23 280.145 202.566C280.145 202.566 282.253 207.333 283.832 208.486C284.709 209.126 285.806 209.317 286.713 208.796C287.908 208.11 289.498 204.607 289.498 204.607C289.498 204.607 290.928 207.31 291.899 208.02C292.81 208.687 293.876 208.714 294.876 208.641C295.76 208.576 296.74 208.522 297.469 207.71C298.572 206.48 299.677 202.279 299.677 202.279C299.677 202.279 300.747 205.584 301.598 206.779C302.3 207.765 303.182 208.501 304.095 208.796C305.007 209.091 306.004 208.996 306.88 208.486C308.066 207.795 309.953 204.917 309.953 204.917C309.953 204.917 311.251 207.519 312.161 208.175C313.043 208.811 314.103 208.998 315.042 208.641C316.036 208.263 316.872 207.099 317.635 206.003C318.316 205.025 319.353 202.566 319.353 202.566Z" stroke="black" stroke-width="0.286432"/>
<path d="M299.749 204.717C299.749 204.717 298.977 206.638 298.502 207.294C297.842 208.206 297.408 208.755 296.561 209.187C295.715 209.618 294.535 209.86 293.649 209.782C292.793 209.706 291.912 209.305 291.14 208.7C290.469 208.175 289.4 206.646 289.4 206.646C288.88 207.735 288.218 208.5 287.588 209.066C286.783 209.789 285.987 209.854 285.151 209.782C283.451 209.634 281.866 207.918 280.594 204.44C279.769 201.289 278.821 198.098 277.636 194.752C279.002 193.971 280.593 193.555 282.357 193.42C281.64 196.688 280.895 199.871 281.158 202.501C282.641 200.707 283.121 198.264 283.631 195.842L285.355 205.649C284.309 205.352 284.865 205.003 282.118 204.162C282.668 205.839 283.928 207.91 285.318 208.114C286.252 208.251 286.93 207.784 287.524 206.952C287.95 206.354 288.339 205.564 288.334 204.673C288.331 204.163 288.329 203.653 288.326 203.143C288.324 202.815 288.073 202.351 287.871 202.347C287.677 202.342 287.624 202.849 287.572 203.15C287.469 203.752 287.676 204.423 287.572 205.024C287.458 205.688 287.237 206.212 286.876 206.578C286.575 206.882 285.849 206.953 285.849 206.953L286.081 205.507C286.244 204.486 285.631 203.694 285.484 202.668C285.389 202.007 285.337 201.268 285.484 200.633C285.643 199.945 285.965 199.276 286.379 198.972C286.53 198.861 286.711 198.846 286.876 198.865C287.11 198.892 287.572 199.133 287.572 199.133C287.572 199.133 287.44 198.099 287.473 197.473C287.513 196.713 287.911 195.305 288.136 194.634C288.508 193.52 289.1 192.516 289.168 192.408C289.233 192.513 289.875 193.479 290.294 194.548C290.547 195.193 290.806 196.124 290.879 196.877C290.939 197.498 290.918 198.812 290.918 198.812C290.918 198.812 291.6 198.359 291.833 198.306C291.997 198.269 292.178 198.264 292.333 198.357C292.759 198.614 293.109 199.245 293.298 199.913C293.472 200.53 293.451 201.273 293.385 201.943C293.282 202.984 292.904 203.789 293.111 204.789L293.405 206.205C293.405 206.205 292.677 206.217 292.364 205.947C291.987 205.622 291.745 205.124 291.602 204.475C291.472 203.887 291.548 203.166 291.323 202.659C291.223 202.435 291.084 202.186 290.891 202.212C290.689 202.24 290.547 202.773 290.538 203.101L290.503 204.478C290.492 204.901 290.611 205.341 290.751 205.684C291.095 206.523 291.606 207.032 292.183 207.41C292.808 207.819 293.372 207.976 294.047 207.989C294.609 208 295.587 207.851 296.12 207.56C296.777 207.201 297.163 206.746 297.671 205.984C297.957 205.554 298.149 204.931 298.275 204.333C298.42 203.645 298.368 202.457 298.368 202.457C297.714 202.857 297.146 203.395 296.634 204.024C296.055 204.734 295.548 205.561 295.07 206.434L295.024 194.578C295.705 195.792 296.2 196.878 296.88 197.792C297.453 198.562 297.748 198.855 298.321 199.155C298.157 198.202 298.102 197.623 297.68 196.669C297.094 195.347 296.523 193.927 295.813 192.605C297.12 192.253 298.425 192.159 299.749 192.159C301.073 192.159 302.379 192.253 303.685 192.605C302.976 193.927 302.405 195.347 301.819 196.669C301.396 197.623 301.341 198.202 301.177 199.155C301.75 198.855 302.045 198.562 302.618 197.792C303.299 196.878 303.794 195.792 304.475 194.578L304.428 206.434C303.95 205.561 303.443 204.734 302.864 204.024C302.352 203.395 301.784 202.857 301.131 202.457C301.131 202.457 301.079 203.645 301.224 204.333C301.35 204.931 301.541 205.554 301.827 205.984C302.335 206.746 302.722 207.201 303.378 207.56C303.911 207.851 304.889 208 305.452 207.989C306.126 207.976 306.69 207.819 307.315 207.41C307.892 207.032 308.404 206.523 308.747 205.684C308.887 205.341 309.007 204.901 308.996 204.478L308.96 203.101C308.952 202.773 308.81 202.24 308.607 202.212C308.415 202.186 308.275 202.435 308.176 202.659C307.951 203.166 308.026 203.887 307.896 204.475C307.753 205.124 307.511 205.622 307.135 205.947C306.822 206.217 306.094 206.205 306.094 206.205L306.387 204.789C306.595 203.789 306.216 202.984 306.113 201.943C306.047 201.273 306.027 200.53 306.201 199.913C306.389 199.245 306.74 198.614 307.165 198.357C307.321 198.264 307.502 198.269 307.666 198.306C307.898 198.359 308.581 198.812 308.581 198.812C308.581 198.812 308.559 197.498 308.619 196.877C308.692 196.124 308.951 195.193 309.204 194.548C309.624 193.479 310.266 192.513 310.33 192.408C310.398 192.516 310.99 193.52 311.363 194.634C311.587 195.305 311.985 196.713 312.026 197.473C312.059 198.099 311.926 199.133 311.926 199.133C311.926 199.133 312.388 198.892 312.622 198.865C312.788 198.846 312.969 198.861 313.12 198.972C313.533 199.276 313.855 199.945 314.015 200.633C314.162 201.268 314.109 202.007 314.015 202.668C313.867 203.694 313.254 204.486 313.418 205.507L313.65 206.953C313.65 206.953 312.923 206.882 312.622 206.578C312.261 206.212 312.041 205.688 311.926 205.024C311.822 204.423 312.029 203.752 311.926 203.15C311.875 202.849 311.821 202.342 311.628 202.347C311.425 202.351 311.175 202.815 311.173 203.143C311.17 203.653 311.167 204.163 311.164 204.673C311.159 205.564 311.548 206.354 311.975 206.952C312.568 207.784 313.246 208.251 314.181 208.114C315.57 207.91 316.83 205.839 317.381 204.162C314.634 205.003 315.19 205.352 314.144 205.649L315.867 195.842C316.378 198.264 316.857 200.707 318.34 202.501C318.603 199.871 317.859 196.688 317.141 193.42C318.906 193.555 320.497 193.971 321.862 194.752C320.678 198.098 319.729 201.289 318.905 204.44C317.633 207.918 316.047 209.634 314.348 209.782C313.512 209.854 312.716 209.789 311.91 209.066C311.28 208.5 310.619 207.735 310.099 206.646C310.099 206.646 309.03 208.175 308.359 208.7C307.587 209.305 306.705 209.706 305.849 209.782C304.963 209.86 303.783 209.618 302.938 209.187C302.09 208.755 301.656 208.206 300.997 207.294C300.522 206.638 299.749 204.717 299.749 204.717Z" fill="#FED100"/>
<path d="M285.151 209.782C283.451 209.634 281.866 207.918 280.594 204.44C279.769 201.289 278.821 198.098 277.636 194.752C279.002 193.971 280.593 193.555 282.357 193.42C281.64 196.688 280.895 199.871 281.158 202.501C282.641 200.707 283.121 198.264 283.631 195.842L285.355 205.649C284.309 205.352 284.865 205.003 282.118 204.162C282.668 205.839 283.928 207.91 285.318 208.114L285.151 209.782ZM314.181 208.114C315.57 207.91 316.83 205.839 317.381 204.162C314.634 205.003 315.19 205.352 314.144 205.649L315.867 195.842C316.378 198.264 316.857 200.707 318.34 202.501C318.603 199.871 317.859 196.688 317.141 193.42C318.906 193.555 320.497 193.971 321.862 194.752C320.678 198.098 319.729 201.289 318.905 204.44C317.633 207.918 316.047 209.634 314.348 209.782L314.315 209.879L314.181 208.114Z" fill="#FED100"/>
<path d="M293.649 209.782C292.793 209.706 291.912 209.305 291.14 208.7C290.469 208.175 289.4 206.646 289.4 206.646C288.88 207.735 288.218 208.5 287.588 209.066C286.783 209.789 285.987 209.854 285.151 209.782L285.121 210.255L285.318 208.114C286.252 208.251 286.93 207.784 287.524 206.952C287.95 206.354 288.339 205.564 288.334 204.673C288.331 204.163 288.329 203.653 288.326 203.143C288.324 202.815 288.073 202.351 287.871 202.346C287.677 202.342 287.624 202.849 287.572 203.15C287.469 203.752 287.676 204.423 287.572 205.024C287.458 205.688 287.237 206.212 286.876 206.578C286.575 206.882 285.849 206.953 285.849 206.953L286.081 205.506C286.244 204.486 285.631 203.694 285.484 202.668C285.389 202.007 285.337 201.268 285.484 200.633C285.643 199.945 285.965 199.276 286.379 198.972C286.53 198.861 286.711 198.846 286.876 198.865C287.11 198.892 287.572 199.133 287.572 199.133C287.572 199.133 287.44 198.099 287.473 197.473C287.513 196.713 287.911 195.305 288.136 194.634C288.508 193.52 289.1 192.516 289.168 192.408C289.233 192.513 289.875 193.479 290.294 194.548C290.547 195.193 290.806 196.124 290.879 196.877C290.939 197.498 290.918 198.812 290.918 198.812C290.918 198.812 291.6 198.359 291.833 198.306C291.997 198.269 292.178 198.264 292.333 198.357C292.759 198.614 293.109 199.245 293.298 199.913C293.472 200.53 293.451 201.273 293.385 201.943C293.282 202.984 292.904 203.789 293.111 204.789L293.405 206.205C293.405 206.205 292.677 206.217 292.364 205.947C291.987 205.622 291.745 205.124 291.602 204.475C291.472 203.887 291.548 203.166 291.323 202.659C291.223 202.435 291.084 202.186 290.891 202.212C290.689 202.24 290.547 202.773 290.538 203.101L290.503 204.478C290.492 204.901 290.611 205.341 290.751 205.684C291.095 206.523 291.606 207.032 292.183 207.41C292.808 207.819 293.372 207.976 294.047 207.989L293.649 209.782Z" fill="#FED100"/>
<path d="M310.509 204.637L310.489 204.584C310.465 203.935 310.601 202.823 310.601 202.823C310.677 202.27 310.971 201.678 311.334 201.465C311.53 201.35 311.769 201.306 311.98 201.473C312.108 201.574 312.212 201.653 312.297 201.796C312.382 201.94 312.435 202.128 312.493 202.397C312.576 202.789 312.54 203.199 312.498 203.549C312.428 204.128 312.435 204.634 312.537 205.026C312.608 205.303 312.752 205.51 312.937 205.689C312.903 205.491 312.878 205.396 312.859 205.176C312.831 204.851 312.865 204.515 312.942 204.221C313.077 203.708 313.262 203.304 313.387 202.855C313.506 202.426 313.569 201.94 313.548 201.481C313.531 201.102 313.462 200.71 313.328 200.438C313.183 200.143 312.962 199.898 312.742 199.83C312.546 199.77 312.223 199.877 311.965 200.012C311.706 200.146 311.51 200.296 311.51 200.296L311.281 200.47L311.32 200.067C311.454 198.713 311.573 198.025 311.32 196.758C311.216 196.238 311.042 195.663 310.748 194.997C310.605 194.674 310.446 194.288 310.264 193.931C309.791 194.803 309.46 195.685 309.272 196.577C309.066 197.553 309.058 198.851 309.106 199.893L309.125 200.312L308.905 200.099C308.905 200.099 308.655 199.851 308.353 199.617C308.051 199.383 307.683 199.176 307.527 199.198C307.234 199.24 307.039 199.466 306.848 199.862C306.686 200.197 306.651 200.488 306.618 200.951C306.597 201.244 306.643 201.794 306.672 202.152C306.706 202.571 306.859 203.012 306.902 203.542C306.916 203.717 306.949 203.854 306.975 204.023C307 204.192 307.013 204.391 306.985 204.623C306.965 204.784 306.936 204.9 306.897 205.097C306.972 205.038 307.023 205.009 307.063 204.963C307.208 204.795 307.267 204.496 307.361 204.134C307.412 203.939 307.423 203.764 307.429 203.557C307.436 203.351 307.442 203.108 307.508 202.839C307.619 202.379 307.751 201.832 308.04 201.496C308.277 201.222 308.594 201.145 308.871 201.283C309.036 201.365 309.153 201.529 309.238 201.717C309.322 201.906 309.379 202.112 309.438 202.318C309.514 202.58 309.559 202.974 309.595 203.32C309.63 203.667 309.648 203.96 309.648 203.96L309.653 203.992L309.648 204.031L309.446 205.116L309.189 205.022L309.384 203.985C309.383 203.965 309.364 203.714 309.331 203.392C309.296 203.059 309.245 202.66 309.199 202.5C309.138 202.29 309.084 202.107 309.023 201.971C308.962 201.835 308.9 201.748 308.793 201.695C308.602 201.6 308.353 201.658 308.192 201.845C307.987 202.082 307.863 202.542 307.752 202.998C307.704 203.195 307.7 203.374 307.693 203.582C307.687 203.79 307.68 204.033 307.61 204.301C307.524 204.632 307.453 205.041 307.219 205.311C307.047 205.511 306.736 205.706 306.736 205.706L306.462 205.888L306.56 205.438C306.56 205.438 306.697 204.777 306.726 204.545C306.745 204.385 306.737 204.269 306.716 204.127C306.695 203.985 306.656 203.82 306.638 203.598C306.604 203.179 306.451 202.738 306.408 202.208C306.38 201.863 306.325 201.317 306.354 200.905C306.389 200.425 306.438 200.008 306.638 199.594C306.856 199.141 307.133 198.825 307.503 198.773C307.795 198.732 308.155 198.987 308.47 199.231C308.673 199.388 308.735 199.46 308.837 199.555C308.804 198.554 308.814 197.4 309.018 196.436C309.234 195.413 309.604 194.405 310.166 193.427L310.264 193.261L310.362 193.427C310.623 193.881 310.802 194.38 310.963 194.746C311.271 195.442 311.461 196.06 311.574 196.625C311.816 197.835 311.727 198.661 311.613 199.776C311.702 199.715 311.733 199.682 311.887 199.602C312.163 199.459 312.5 199.323 312.791 199.413C313.088 199.504 313.356 199.799 313.539 200.171C313.72 200.54 313.797 201.012 313.817 201.45C313.842 201.993 313.767 202.549 313.631 203.037C313.491 203.542 313.305 203.944 313.187 204.395C313.127 204.623 313.098 204.886 313.118 205.122C313.149 205.474 313.265 206.046 313.265 206.046L313.348 206.448L313.094 206.314C312.688 206.092 312.423 205.689 312.292 205.185C312.162 204.681 312.163 204.092 312.239 203.464C312.278 203.133 312.3 202.803 312.243 202.54C312.191 202.296 312.154 202.176 312.107 202.097C312.06 202.019 311.987 201.959 311.862 201.861C311.747 201.769 311.568 201.783 311.422 201.868C311.181 202.01 310.891 202.532 310.865 202.903C310.819 203.557 310.704 204.222 310.509 204.637ZM318.133 203.866L318.201 203.645L318.054 203.566C316.963 203.007 315.955 203.43 315.005 204.079C315.389 202.384 315.681 200.691 315.889 198.994C316.925 202.002 317.804 202.985 318.631 203.597L318.783 203.708L318.817 203.44C319.063 201.386 319.082 198.65 318.04 194.58C319.208 194.678 320.37 194.904 321.524 195.733L321.632 195.338C320.365 194.428 319.099 194.202 317.849 194.114L317.634 194.098L317.722 194.414C318.793 198.431 318.793 201.045 318.577 203.061C317.783 202.436 316.979 201.493 315.953 198.331L315.772 197.778L315.704 198.394C315.481 200.387 315.133 202.384 314.663 204.379L314.545 204.869L314.839 204.648C315.798 203.944 316.769 203.486 317.815 203.929L317.841 203.955L318.133 203.866ZM281.684 203.929C282.728 203.489 283.696 203.945 284.655 204.648L284.948 204.869L284.836 204.379C284.366 202.384 284.018 200.387 283.795 198.394L283.726 197.778L283.546 198.331C282.519 201.494 281.711 202.436 280.916 203.061C280.7 201.045 280.706 198.431 281.776 194.414L281.86 194.098L281.649 194.114C280.399 194.202 279.134 194.428 277.867 195.338L277.974 195.733C279.13 194.903 280.289 194.678 281.459 194.58C280.416 198.65 280.435 201.386 280.682 203.44L280.711 203.708L280.867 203.597C281.693 202.986 282.574 202.004 283.609 199.002C283.817 200.696 284.11 202.387 284.494 204.079C283.543 203.43 282.536 203.007 281.444 203.566L281.297 203.645L281.366 203.866L281.338 203.889L281.684 203.929ZM290.267 204.884L290.114 203.961C290.117 203.922 290.131 203.7 290.163 203.392C290.197 203.059 290.254 202.66 290.3 202.5C290.36 202.29 290.415 202.107 290.476 201.971C290.537 201.835 290.599 201.748 290.705 201.695C290.897 201.599 291.14 201.657 291.302 201.845C291.507 202.082 291.636 202.542 291.746 202.998C291.794 203.195 291.798 203.373 291.805 203.582C291.812 203.79 291.818 204.033 291.888 204.3C291.974 204.632 292.046 205.04 292.279 205.311C292.451 205.511 292.763 205.706 292.763 205.706L293.032 205.888L292.939 205.438C292.939 205.438 292.801 204.777 292.773 204.545C292.753 204.385 292.761 204.269 292.782 204.127C292.804 203.985 292.838 203.82 292.856 203.598C292.89 203.179 293.042 202.738 293.085 202.208C293.113 201.863 293.173 201.317 293.144 200.905C293.11 200.425 293.06 200.008 292.861 199.594C292.642 199.141 292.366 198.825 291.996 198.773C291.703 198.731 291.344 198.987 291.028 199.231C290.825 199.388 290.763 199.46 290.661 199.555C290.694 198.554 290.684 197.4 290.481 196.436C290.264 195.413 289.894 194.405 289.332 193.427L289.234 193.261L289.137 193.427C288.875 193.881 288.692 194.38 288.531 194.746C288.223 195.442 288.037 196.06 287.925 196.625C287.683 197.835 287.771 198.661 287.885 199.776C287.796 199.715 287.767 199.682 287.612 199.602C287.335 199.458 286.998 199.323 286.708 199.412C286.41 199.504 286.143 199.798 285.96 200.171C285.779 200.54 285.701 201.012 285.681 201.45C285.657 201.993 285.731 202.549 285.867 203.037C286.008 203.542 286.194 203.944 286.312 204.395C286.371 204.622 286.396 204.886 286.375 205.122C286.345 205.474 286.234 206.046 286.234 206.046L286.15 206.448L286.405 206.314C286.81 206.092 287.076 205.689 287.206 205.185C287.336 204.681 287.336 204.092 287.26 203.463C287.22 203.133 287.199 202.803 287.255 202.54C287.307 202.296 287.345 202.176 287.392 202.097C287.439 202.018 287.506 201.959 287.631 201.86C287.747 201.769 287.93 201.783 288.076 201.868C288.318 202.01 288.581 202.538 288.633 202.903C288.633 202.903 288.633 202.91 288.633 202.91C288.634 202.921 288.759 204.05 288.741 204.561L289.054 204.651C289.028 203.935 288.892 202.824 288.892 202.824C288.817 202.27 288.528 201.678 288.164 201.466C287.968 201.351 287.725 201.307 287.514 201.473C287.385 201.575 287.287 201.654 287.201 201.797C287.116 201.94 287.058 202.129 287.001 202.397C286.917 202.79 286.954 203.199 286.996 203.55C287.066 204.129 287.058 204.635 286.957 205.027C286.885 205.303 286.746 205.511 286.561 205.69C286.595 205.492 286.62 205.396 286.639 205.177C286.667 204.852 286.633 204.516 286.556 204.221C286.422 203.709 286.237 203.305 286.111 202.855C285.992 202.426 285.925 201.941 285.945 201.481C285.962 201.103 286.032 200.711 286.165 200.439C286.31 200.144 286.536 199.899 286.757 199.831C286.953 199.77 287.27 199.878 287.529 200.013C287.787 200.147 287.988 200.297 287.988 200.297L288.218 200.471L288.174 200.068C288.039 198.713 287.926 198.026 288.179 196.759C288.283 196.238 288.452 195.664 288.746 194.998C288.888 194.675 289.053 194.289 289.234 193.932C289.708 194.803 290.038 195.686 290.226 196.578C290.433 197.554 290.436 198.852 290.388 199.894L290.373 200.313L290.593 200.099C290.593 200.099 290.838 199.852 291.14 199.618C291.443 199.384 291.816 199.177 291.971 199.199C292.264 199.241 292.46 199.467 292.651 199.863C292.812 200.198 292.847 200.489 292.88 200.952C292.901 201.245 292.851 201.795 292.822 202.153C292.788 202.572 292.64 203.012 292.597 203.542C292.583 203.717 292.549 203.855 292.523 204.024C292.498 204.193 292.48 204.392 292.509 204.624C292.528 204.785 292.558 204.901 292.597 205.098C292.522 205.039 292.47 205.01 292.431 204.964C292.286 204.795 292.227 204.497 292.132 204.135C292.082 203.94 292.075 203.765 292.069 203.558C292.062 203.352 292.056 203.109 291.991 202.84C291.879 202.379 291.748 201.833 291.458 201.497C291.221 201.222 290.905 201.146 290.627 201.284C290.463 201.366 290.34 201.53 290.256 201.718C290.171 201.907 290.119 202.113 290.06 202.318C289.985 202.581 289.939 202.975 289.904 203.321C289.868 203.668 289.845 203.961 289.845 203.961V203.992L289.85 204.032L290.008 204.979L290.086 204.992L290.267 204.884ZM300.382 201.387L300.387 201.118L300.548 201.181C301.292 201.483 301.86 201.89 302.332 202.342C302.931 202.916 303.373 203.56 303.837 204.182L303.916 197.051C303.519 197.758 303.148 198.515 302.601 199.12C302.154 199.615 301.317 200.265 300.534 200.407L300.348 200.439L300.387 200.147C300.497 199.343 300.494 198.785 300.744 197.833C300.981 196.93 301.48 195.62 302.474 193.427C301.614 193.273 300.866 193.103 299.747 193.103C298.628 193.103 297.884 193.273 297.025 193.427C298.018 195.62 298.518 196.93 298.755 197.833C299.004 198.785 299.001 199.343 299.111 200.147L299.151 200.439L298.965 200.407C298.181 200.265 297.344 199.615 296.898 199.12C296.353 198.517 295.977 197.764 295.583 197.059L295.661 204.174C296.124 203.555 296.57 202.914 297.166 202.342C297.638 201.89 298.202 201.483 298.945 201.181L299.111 201.118V201.387L298.844 201.689C298.216 201.975 297.714 202.32 297.303 202.713C296.646 203.344 296.171 204.08 295.612 204.798L295.402 205.066L295.397 204.632L295.314 196.499L295.304 195.962L295.539 196.341C296.055 197.181 296.441 198.098 297.044 198.765C297.416 199.177 298.145 199.727 298.813 199.918C298.739 199.27 298.706 198.764 298.505 197.999C298.27 197.103 297.787 195.79 296.682 193.38L296.546 193.08L296.775 193.04C297.727 192.881 298.512 192.669 299.747 192.669C300.981 192.669 301.767 192.881 302.718 193.04L302.953 193.08L302.816 193.38C301.712 195.791 301.223 197.104 300.988 197.999C300.787 198.767 300.76 199.275 300.685 199.926C301.354 199.735 302.078 199.177 302.449 198.765C303.052 198.098 303.444 197.181 303.96 196.341L304.189 195.962L304.184 196.499L304.096 204.632V205.067L303.881 204.798C303.323 204.08 302.853 203.344 302.195 202.713C301.785 202.32 301.283 201.975 300.656 201.695L300.382 201.387Z" fill="black"/>
<path d="M299.749 204.717C299.749 204.717 298.977 206.638 298.502 207.294C297.842 208.206 297.408 208.755 296.561 209.187C295.715 209.618 294.535 209.86 293.649 209.782C292.793 209.706 291.912 209.305 291.14 208.7C290.469 208.175 289.4 206.646 289.4 206.646C288.88 207.735 288.218 208.5 287.588 209.066C286.783 209.789 285.987 209.854 285.151 209.782C283.451 209.634 281.866 207.918 280.594 204.44C279.769 201.289 278.821 198.098 277.636 194.752C279.002 193.971 280.593 193.555 282.357 193.42C281.64 196.688 280.895 199.871 281.158 202.501C282.641 200.707 283.121 198.264 283.631 195.842L285.355 205.649C284.309 205.352 284.865 205.003 282.118 204.162C282.668 205.839 283.928 207.91 285.318 208.114C286.252 208.251 286.93 207.784 287.524 206.952C287.95 206.354 288.339 205.564 288.334 204.673C288.331 204.163 288.329 203.653 288.326 203.143C288.324 202.815 288.073 202.351 287.871 202.347C287.677 202.342 287.624 202.849 287.572 203.15C287.469 203.752 287.676 204.423 287.572 205.024C287.458 205.688 287.237 206.212 286.876 206.578C286.575 206.882 285.849 206.953 285.849 206.953L286.081 205.507C286.244 204.486 285.631 203.694 285.484 202.668C285.389 202.007 285.337 201.268 285.484 200.633C285.643 199.945 285.965 199.276 286.379 198.972C286.53 198.861 286.711 198.846 286.876 198.865C287.11 198.892 287.572 199.133 287.572 199.133C287.572 199.133 287.44 198.099 287.473 197.473C287.513 196.713 287.911 195.305 288.136 194.634C288.508 193.52 289.1 192.516 289.168 192.408C289.233 192.513 289.875 193.479 290.294 194.548C290.547 195.193 290.806 196.124 290.879 196.877C290.939 197.498 290.918 198.812 290.918 198.812C290.918 198.812 291.6 198.359 291.833 198.306C291.997 198.269 292.178 198.264 292.333 198.357C292.759 198.614 293.109 199.245 293.298 199.913C293.472 200.53 293.451 201.273 293.385 201.943C293.282 202.984 292.904 203.789 293.111 204.789L293.405 206.205C293.405 206.205 292.677 206.217 292.364 205.947C291.987 205.622 291.745 205.124 291.602 204.475C291.472 203.887 291.548 203.166 291.323 202.659C291.223 202.435 291.084 202.186 290.891 202.212C290.689 202.24 290.547 202.773 290.538 203.101L290.503 204.478C290.492 204.901 290.611 205.341 290.751 205.684C291.095 206.523 291.606 207.032 292.183 207.41C292.808 207.819 293.372 207.976 294.047 207.989C294.609 208 295.587 207.851 296.12 207.56C296.777 207.201 297.163 206.746 297.671 205.984C297.957 205.554 298.149 204.931 298.275 204.333C298.42 203.645 298.368 202.457 298.368 202.457C297.714 202.857 297.146 203.395 296.634 204.024C296.055 204.734 295.548 205.561 295.07 206.434L295.024 194.578C295.705 195.792 296.2 196.878 296.88 197.792C297.453 198.562 297.748 198.855 298.321 199.155C298.157 198.202 298.102 197.623 297.68 196.669C297.094 195.347 296.523 193.927 295.813 192.605C297.12 192.253 298.425 192.159 299.749 192.159C301.073 192.159 302.379 192.253 303.685 192.605C302.976 193.927 302.405 195.347 301.819 196.669C301.396 197.623 301.341 198.202 301.177 199.155C301.75 198.855 302.045 198.562 302.618 197.792C303.299 196.878 303.794 195.792 304.475 194.578L304.428 206.434C303.95 205.561 303.443 204.734 302.864 204.024C302.352 203.395 301.784 202.857 301.131 202.457C301.131 202.457 301.079 203.645 301.224 204.333C301.35 204.931 301.541 205.554 301.827 205.984C302.335 206.746 302.722 207.201 303.378 207.56C303.911 207.851 304.889 208 305.452 207.989C306.126 207.976 306.69 207.819 307.315 207.41C307.892 207.032 308.404 206.523 308.747 205.684C308.887 205.341 309.007 204.901 308.996 204.478L308.96 203.101C308.952 202.773 308.81 202.24 308.607 202.212C308.415 202.186 308.275 202.435 308.176 202.659C307.951 203.166 308.026 203.887 307.896 204.475C307.753 205.124 307.511 205.622 307.135 205.947C306.822 206.217 306.094 206.205 306.094 206.205L306.387 204.789C306.595 203.789 306.216 202.984 306.113 201.943C306.047 201.273 306.027 200.53 306.201 199.913C306.389 199.245 306.74 198.614 307.165 198.357C307.321 198.264 307.502 198.269 307.666 198.306C307.898 198.359 308.581 198.812 308.581 198.812C308.581 198.812 308.559 197.498 308.619 196.877C308.692 196.124 308.951 195.193 309.204 194.548C309.624 193.479 310.266 192.513 310.33 192.408C310.398 192.516 310.99 193.52 311.363 194.634C311.587 195.305 311.985 196.713 312.026 197.473C312.059 198.099 311.926 199.133 311.926 199.133C311.926 199.133 312.388 198.892 312.622 198.865C312.788 198.846 312.969 198.861 313.12 198.972C313.533 199.276 313.855 199.945 314.015 200.633C314.162 201.268 314.109 202.007 314.015 202.668C313.867 203.694 313.254 204.486 313.418 205.507L313.65 206.953C313.65 206.953 312.923 206.882 312.622 206.578C312.261 206.212 312.041 205.688 311.926 205.024C311.822 204.423 312.029 203.752 311.926 203.15C311.875 202.849 311.821 202.342 311.628 202.347C311.425 202.351 311.175 202.815 311.173 203.143C311.17 203.653 311.167 204.163 311.164 204.673C311.159 205.564 311.548 206.354 311.975 206.952C312.568 207.784 313.246 208.251 314.181 208.114C315.57 207.91 316.83 205.839 317.381 204.162C314.634 205.003 315.19 205.352 314.144 205.649L315.867 195.842C316.378 198.264 316.857 200.707 318.34 202.501C318.603 199.871 317.859 196.688 317.141 193.42C318.906 193.555 320.497 193.971 321.862 194.752C320.678 198.098 319.729 201.289 318.905 204.44C317.633 207.918 316.047 209.634 314.348 209.782C313.512 209.854 312.716 209.789 311.91 209.066C311.28 208.5 310.619 207.735 310.099 206.646C310.099 206.646 309.03 208.175 308.359 208.7C307.587 209.305 306.705 209.706 305.849 209.782C304.963 209.86 303.783 209.618 302.938 209.187C302.09 208.755 301.656 208.206 300.997 207.294C300.522 206.638 299.749 204.717 299.749 204.717Z" stroke="black" stroke-width="0.286432"/>
<path d="M300.95 200.731C300.95 200.991 300.919 201.247 300.859 201.487C300.799 201.726 300.71 201.944 300.599 202.128C300.487 202.311 300.355 202.456 300.209 202.556C300.063 202.655 299.907 202.706 299.749 202.706C299.591 202.706 299.435 202.655 299.289 202.556C299.143 202.456 299.011 202.311 298.9 202.128C298.788 201.944 298.7 201.726 298.639 201.487C298.579 201.247 298.548 200.991 298.548 200.731C298.548 200.472 298.579 200.216 298.639 199.976C298.7 199.736 298.788 199.519 298.9 199.335C299.011 199.152 299.143 199.006 299.289 198.907C299.435 198.808 299.591 198.757 299.749 198.757C299.907 198.757 300.063 198.808 300.209 198.907C300.355 199.006 300.487 199.152 300.599 199.335C300.71 199.519 300.799 199.736 300.859 199.976C300.919 200.216 300.95 200.472 300.95 200.731Z" fill="#FED100" stroke="black" stroke-width="0.286433"/>
<path d="M281.951 203.444C281.951 203.703 281.92 203.96 281.86 204.199C281.8 204.439 281.711 204.657 281.6 204.84C281.488 205.023 281.356 205.169 281.21 205.268C281.064 205.367 280.908 205.419 280.75 205.419C280.592 205.419 280.436 205.367 280.29 205.268C280.144 205.169 280.012 205.023 279.9 204.84C279.789 204.657 279.701 204.439 279.64 204.199C279.58 203.96 279.549 203.703 279.549 203.444C279.549 203.185 279.58 202.928 279.64 202.688C279.701 202.449 279.789 202.231 279.9 202.048C280.012 201.864 280.144 201.719 280.29 201.62C280.436 201.52 280.592 201.469 280.75 201.469C280.908 201.469 281.064 201.52 281.21 201.62C281.356 201.719 281.488 201.864 281.6 202.048C281.711 202.231 281.8 202.449 281.86 202.688C281.92 202.928 281.951 203.185 281.951 203.444Z" fill="#FED100" stroke="black" stroke-width="0.286433"/>
<path d="M317.547 203.444C317.547 203.703 317.578 203.96 317.638 204.199C317.699 204.439 317.787 204.657 317.899 204.84C318.01 205.023 318.143 205.169 318.288 205.268C318.434 205.367 318.59 205.419 318.748 205.419C318.906 205.419 319.062 205.367 319.208 205.268C319.354 205.169 319.486 205.023 319.598 204.84C319.709 204.657 319.798 204.439 319.858 204.199C319.918 203.96 319.949 203.703 319.949 203.444C319.949 203.185 319.918 202.928 319.858 202.688C319.798 202.449 319.709 202.231 319.598 202.048C319.486 201.864 319.354 201.719 319.208 201.62C319.062 201.52 318.906 201.469 318.748 201.469C318.59 201.469 318.434 201.52 318.288 201.62C318.143 201.719 318.01 201.864 317.899 202.048C317.787 202.231 317.699 202.449 317.638 202.688C317.578 202.928 317.547 203.185 317.547 203.444Z" fill="#FED100" stroke="black" stroke-width="0.286433"/>
<path d="M288.187 203.751L290.843 203.426L291.21 204.284L290.887 205.227L288.231 205.551L287.784 204.703L288.187 203.751Z" fill="#FED100"/>
<path d="M288.187 203.751L290.843 203.426L291.21 204.284L290.887 205.227L288.231 205.551L287.784 204.703L288.187 203.751Z" stroke="black" stroke-width="0.286437"/>
<path d="M311.311 203.751L308.655 203.426L308.288 204.284L308.612 205.227L311.268 205.551L311.715 204.703L311.311 203.751Z" fill="#F6E078"/>
<path d="M311.311 203.751L308.655 203.426L308.288 204.284L308.612 205.227L311.268 205.551L311.715 204.703L311.311 203.751Z" fill="#FED100" stroke="black" stroke-width="0.286437"/>
<path fill-rule="evenodd" clip-rule="evenodd" d="M283.081 220.205C283.081 220.205 284.967 219.982 288.289 219.679C291.611 219.376 295.17 219.217 296.986 219.217C297.276 219.217 302.23 219.217 302.52 219.217C304.278 219.217 307.921 219.376 311.217 219.679C314.512 219.982 316.386 220.236 316.386 220.236L317.541 211.896C317.541 211.896 305.703 210.17 299.753 210.17C293.803 210.17 281.964 211.896 281.964 211.896L283.081 220.205Z" fill="#FED100"/>
<path d="M299.676 210.261C305.621 210.256 311.565 210.777 317.484 211.836L316.4 220.254C310.514 219.4 305.695 219.172 299.743 219.096M299.822 210.261C293.877 210.256 287.933 210.777 282.015 211.836L283.098 220.254C288.985 219.4 293.803 219.172 299.755 219.096" stroke="black" stroke-width="0.286432"/>
<path d="M288.233 210.463L288.228 210.469H288.223C286.11 210.715 283.663 210.983 281.528 211.453C281.226 212.036 281.201 212.568 281.75 212.993C283.8 212.542 286.217 212.267 288.332 212.021C291.201 211.753 294.094 211.585 296.98 211.539H302.514C304.24 211.539 307.885 211.709 311.161 212.028C314.422 212.345 317.753 212.993 317.753 212.993C318.321 212.524 318.26 212 317.951 211.453C317.951 211.453 314.589 210.787 311.26 210.463C307.946 210.141 304.305 209.974 302.514 209.974H296.98C294.06 209.989 291.145 210.211 288.233 210.463Z" fill="#FED100"/>
<path d="M288.233 210.463L288.228 210.469H288.223C286.11 210.715 283.663 210.983 281.528 211.453C281.226 212.036 281.201 212.568 281.75 212.993C283.8 212.542 286.217 212.267 288.332 212.021C291.201 211.753 294.094 211.585 296.98 211.539H302.514C304.24 211.539 307.885 211.709 311.161 212.028C314.422 212.345 317.753 212.993 317.753 212.993C318.321 212.524 318.26 212 317.951 211.453C317.951 211.453 314.589 210.787 311.26 210.463C307.946 210.141 304.305 209.974 302.514 209.974H296.98C294.06 209.989 291.145 210.211 288.233 210.463Z" stroke="black" stroke-width="0.286433"/>
<path d="M289.042 219.153L289.037 219.159H289.032C287.067 219.405 284.792 219.673 282.807 220.143C282.526 220.726 282.503 221.257 283.014 221.683C284.919 221.231 287.166 220.957 289.133 220.711C291.801 220.442 294.491 220.274 297.174 220.228H302.32C303.925 220.228 307.314 220.398 310.36 220.717C313.393 221.034 316.489 221.683 316.489 221.683C317.018 221.214 316.96 220.689 316.673 220.143C316.673 220.143 313.548 219.477 310.452 219.153C307.37 218.83 303.985 218.664 302.32 218.664H297.174C294.459 218.678 291.749 218.901 289.042 219.153Z" fill="#FED100"/>
<path d="M289.042 219.153L289.037 219.159H289.032C287.067 219.405 284.792 219.673 282.807 220.143C282.526 220.726 282.503 221.257 283.014 221.683C284.919 221.231 287.166 220.957 289.133 220.711C291.801 220.442 294.491 220.363 297.174 220.317H302.32C303.925 220.317 307.314 220.398 310.36 220.717C313.393 221.034 316.489 221.683 316.489 221.683C317.018 221.214 316.96 220.689 316.673 220.143C316.673 220.143 313.548 219.477 310.452 219.153C307.37 218.83 303.985 218.753 302.32 218.753H297.174C294.459 218.767 291.749 218.9 289.042 219.153Z" stroke="black" stroke-width="0.286433"/>
<path d="M303.049 212.156H296.449C296.318 212.156 296.211 212.288 296.211 212.45V217.647C296.211 217.809 296.318 217.941 296.449 217.941H303.049C303.18 217.941 303.287 217.809 303.287 217.647V212.45C303.287 212.288 303.18 212.156 303.049 212.156Z" stroke="black" stroke-width="0.286432"/>
<path d="M302.117 212.915H297.381C297.155 212.915 296.972 213.142 296.972 213.421V216.675C296.972 216.955 297.155 217.182 297.381 217.182H302.117C302.343 217.182 302.527 216.955 302.527 216.675V213.421C302.527 213.142 302.343 212.915 302.117 212.915Z" stroke="#A0892C" stroke-width="0.286432"/>
<path fill-rule="evenodd" clip-rule="evenodd" d="M302.407 217.034C302.333 217.125 302.231 217.182 302.117 217.182H297.381C297.268 217.182 297.165 217.125 297.091 217.034C297.017 216.942 296.972 216.816 296.972 216.675V213.422C296.972 213.281 297.017 213.155 297.091 213.063C297.165 212.972 302.481 216.942 302.407 217.034Z" stroke="#A0892C" stroke-width="0.286432"/>
<path fill-rule="evenodd" clip-rule="evenodd" d="M302.407 217.034C302.333 217.125 302.231 217.182 302.117 217.182H297.381C297.268 217.182 297.165 217.125 297.091 217.034C297.017 216.942 296.972 216.816 296.972 216.675V213.422C296.972 213.281 297.017 213.155 297.091 213.063C297.129 213.017 298.518 214.017 299.866 215.026C301.174 216.004 302.444 216.989 302.407 217.034Z" stroke="black" stroke-width="0.286432"/>
<path fill-rule="evenodd" clip-rule="evenodd" d="M302.407 213.063C302.481 213.155 302.527 213.281 302.527 213.422V216.675C302.527 216.816 302.481 216.942 302.407 217.034C302.333 217.125 302.231 217.182 302.117 217.182H297.381C297.268 217.182 297.165 217.125 297.091 217.034C297.017 216.942 302.333 212.972 302.407 213.063Z" stroke="black" stroke-width="0.286432"/>
<path fill-rule="evenodd" clip-rule="evenodd" d="M302.407 217.034C302.333 217.125 302.231 217.182 302.117 217.182H297.381C297.268 217.182 297.165 217.125 297.091 217.034C297.054 216.987 298.404 215.942 299.753 214.936C299.753 214.936 302.481 216.942 302.407 217.034Z" stroke="black" stroke-width="0.286432"/>
<path d="M302.117 212.915H297.381C297.155 212.915 296.972 213.142 296.972 213.421V216.675C296.972 216.955 297.155 217.182 297.381 217.182H302.117C302.343 217.182 302.527 216.955 302.527 216.675V213.421C302.527 213.142 302.343 212.915 302.117 212.915Z" stroke="black" stroke-width="0.286432"/>
<path d="M301.305 213.889H298.193V216.07H301.305V213.889Z" fill="#FED100" stroke="black" stroke-width="0.286432"/>
<path d="M291.289 213.012L289.347 213.341C288.539 213.478 287.983 214.516 288.105 215.659L288.128 215.877C288.25 217.021 289.005 217.837 289.813 217.7L291.754 217.372C292.562 217.235 293.118 216.197 292.996 215.053L292.973 214.835C292.851 213.692 292.097 212.876 291.289 213.012Z" fill="#FED100" stroke="black" stroke-width="0.286654"/>
<path d="M291.292 213.614L289.47 213.922C288.85 214.027 288.423 214.823 288.517 215.7C288.61 216.577 289.189 217.203 289.81 217.098L291.631 216.79C292.251 216.685 292.678 215.889 292.585 215.012C292.491 214.135 291.912 213.51 291.292 213.614Z" stroke="black" stroke-width="0.286654"/>
<path d="M282.506 219.197L285.466 215.35L282.073 213.984L281.915 216.884L282.506 219.197Z" fill="#FED100" stroke="black" stroke-width="0.286477"/>
<path d="M282.48 218.398L284.612 215.635L282.168 214.655L281.562 216.713L282.48 218.398Z" fill="#FED100"/>
<path d="M282.522 218.412L284.615 215.772L281.644 216.794L282.522 218.412Z" fill="#FED100"/>
<path d="M284.552 215.759L281.615 216.585" stroke="black" stroke-width="0.286477"/>
<path d="M282.48 218.396L284.612 215.634L282.169 214.655L281.536 216.683L282.48 218.396Z" stroke="black" stroke-width="0.286477"/>
<path d="M295.102 213.552C295.102 213.681 295.087 213.809 295.057 213.928C295.027 214.047 294.983 214.156 294.927 214.247C294.872 214.338 294.806 214.411 294.733 214.46C294.661 214.509 294.583 214.535 294.504 214.535C294.426 214.535 294.348 214.509 294.275 214.46C294.203 214.411 294.137 214.338 294.081 214.247C294.026 214.156 293.982 214.047 293.952 213.928C293.922 213.809 293.906 213.681 293.906 213.552C293.906 213.423 293.922 213.295 293.952 213.176C293.982 213.056 294.026 212.948 294.081 212.857C294.137 212.765 294.203 212.693 294.275 212.643C294.348 212.594 294.426 212.568 294.504 212.568C294.583 212.568 294.661 212.594 294.733 212.643C294.806 212.693 294.872 212.765 294.927 212.857C294.983 212.948 295.027 213.056 295.057 213.176C295.087 213.295 295.102 213.423 295.102 213.552Z" fill="#FED100" stroke="black" stroke-width="0.286432"/>
<path d="M295.224 216.632C295.225 216.761 295.209 216.888 295.179 217.008C295.149 217.127 295.105 217.235 295.05 217.327C294.994 217.418 294.928 217.491 294.856 217.54C294.783 217.589 294.705 217.615 294.627 217.615C294.548 217.615 294.47 217.589 294.398 217.54C294.325 217.491 294.259 217.418 294.203 217.327C294.148 217.235 294.104 217.127 294.074 217.008C294.044 216.888 294.029 216.761 294.029 216.632C294.029 216.503 294.044 216.375 294.074 216.255C294.104 216.136 294.148 216.028 294.203 215.936C294.259 215.845 294.325 215.773 294.398 215.723C294.47 215.674 294.548 215.648 294.627 215.648C294.705 215.648 294.783 215.674 294.856 215.723C294.928 215.773 294.994 215.845 295.05 215.936C295.105 216.028 295.149 216.136 295.179 216.255C295.209 216.375 295.225 216.503 295.224 216.632Z" fill="#FED100" stroke="black" stroke-width="0.286272"/>
<path d="M287.058 214.262C287.058 214.391 287.043 214.519 287.013 214.639C286.983 214.758 286.939 214.866 286.883 214.958C286.828 215.049 286.762 215.121 286.689 215.171C286.617 215.22 286.539 215.246 286.46 215.246C286.382 215.246 286.304 215.22 286.231 215.171C286.159 215.121 286.093 215.049 286.037 214.958C285.982 214.866 285.938 214.758 285.908 214.639C285.878 214.519 285.862 214.391 285.862 214.262C285.862 214.133 285.878 214.006 285.908 213.886C285.938 213.767 285.982 213.659 286.037 213.567C286.093 213.476 286.159 213.403 286.231 213.354C286.304 213.305 286.382 213.279 286.46 213.279C286.539 213.279 286.617 213.305 286.689 213.354C286.762 213.403 286.828 213.476 286.883 213.567C286.939 213.659 286.983 213.767 287.013 213.886C287.043 214.006 287.058 214.133 287.058 214.262Z" fill="#FED100" stroke="black" stroke-width="0.286432"/>
<path d="M287.18 217.342C287.18 217.471 287.165 217.599 287.135 217.719C287.105 217.838 287.061 217.946 287.005 218.038C286.95 218.129 286.884 218.201 286.811 218.251C286.739 218.3 286.661 218.326 286.582 218.326C286.504 218.326 286.426 218.3 286.353 218.251C286.281 218.201 286.215 218.129 286.159 218.038C286.104 217.946 286.06 217.838 286.03 217.719C286 217.599 285.984 217.471 285.984 217.342C285.984 217.213 286 217.085 286.03 216.966C286.06 216.847 286.104 216.738 286.159 216.647C286.215 216.556 286.281 216.483 286.353 216.434C286.426 216.385 286.504 216.359 286.582 216.359C286.661 216.359 286.739 216.385 286.811 216.434C286.884 216.483 286.95 216.556 287.005 216.647C287.061 216.738 287.105 216.847 287.135 216.966C287.165 217.085 287.18 217.213 287.18 217.342Z" fill="#FED100" stroke="black" stroke-width="0.286432"/>
<path d="M308.21 213.012L310.151 213.341C310.959 213.478 311.515 214.516 311.393 215.659L311.37 215.877C311.248 217.021 310.494 217.837 309.686 217.7L307.745 217.372C306.936 217.235 306.38 216.197 306.502 215.053L306.526 214.835C306.648 213.692 307.402 212.876 308.21 213.012Z" fill="#FED100" stroke="black" stroke-width="0.286654"/>
<path d="M308.207 213.614L310.028 213.922C310.648 214.027 311.075 214.823 310.982 215.7C310.888 216.577 310.309 217.203 309.689 217.098L307.867 216.79C307.247 216.685 306.82 215.889 306.914 215.012C307.008 214.135 307.586 213.51 308.207 213.614Z" stroke="black" stroke-width="0.286654"/>
<path d="M316.993 219.197L314.032 215.35L317.425 213.984L317.583 216.884L316.993 219.197Z" fill="#FED100" stroke="black" stroke-width="0.286477"/>
<path d="M317.019 218.398L314.887 215.635L317.33 214.655L317.936 216.713L317.019 218.398Z" fill="#FED100"/>
<path d="M316.977 218.412L314.884 215.772L317.854 216.794L316.977 218.412Z" fill="#FED100"/>
<path d="M314.946 215.759L317.884 216.585" stroke="black" stroke-width="0.286477"/>
<path d="M317.018 218.396L314.887 215.634L317.329 214.655L317.963 216.683L317.018 218.396Z" stroke="black" stroke-width="0.286477"/>
<path d="M304.396 213.552C304.396 213.681 304.412 213.809 304.442 213.928C304.472 214.047 304.516 214.156 304.571 214.247C304.627 214.338 304.693 214.411 304.765 214.46C304.838 214.509 304.916 214.535 304.994 214.535C305.073 214.535 305.151 214.509 305.223 214.46C305.296 214.411 305.362 214.338 305.417 214.247C305.473 214.156 305.517 214.047 305.547 213.928C305.577 213.809 305.592 213.681 305.592 213.552C305.592 213.423 305.577 213.295 305.547 213.176C305.517 213.056 305.473 212.948 305.417 212.857C305.362 212.765 305.296 212.693 305.223 212.643C305.151 212.594 305.073 212.568 304.994 212.568C304.916 212.568 304.838 212.594 304.765 212.643C304.693 212.693 304.627 212.765 304.571 212.857C304.516 212.948 304.472 213.056 304.442 213.176C304.412 213.295 304.396 213.423 304.396 213.552Z" fill="#FED100" stroke="black" stroke-width="0.286432"/>
<path d="M304.274 216.632C304.274 216.761 304.289 216.888 304.319 217.008C304.349 217.127 304.393 217.235 304.449 217.327C304.504 217.418 304.57 217.491 304.643 217.54C304.715 217.589 304.793 217.615 304.872 217.615C304.95 217.615 305.028 217.589 305.101 217.54C305.173 217.491 305.239 217.418 305.295 217.327C305.35 217.235 305.395 217.127 305.424 217.008C305.454 216.888 305.47 216.761 305.47 216.632C305.47 216.503 305.454 216.375 305.424 216.255C305.395 216.136 305.35 216.028 305.295 215.936C305.239 215.845 305.173 215.773 305.101 215.723C305.028 215.674 304.95 215.648 304.872 215.648C304.793 215.648 304.715 215.674 304.643 215.723C304.57 215.773 304.504 215.845 304.449 215.936C304.393 216.028 304.349 216.136 304.319 216.255C304.289 216.375 304.274 216.503 304.274 216.632Z" fill="#FED100" stroke="black" stroke-width="0.286432"/>
<path d="M312.44 214.262C312.44 214.391 312.456 214.519 312.486 214.639C312.516 214.758 312.56 214.866 312.615 214.958C312.671 215.049 312.737 215.121 312.809 215.171C312.882 215.22 312.96 215.246 313.038 215.246C313.117 215.246 313.195 215.22 313.267 215.171C313.34 215.121 313.406 215.049 313.461 214.958C313.517 214.866 313.561 214.758 313.591 214.639C313.621 214.519 313.636 214.391 313.636 214.262C313.636 214.133 313.621 214.006 313.591 213.886C313.561 213.767 313.517 213.659 313.461 213.567C313.406 213.476 313.34 213.403 313.267 213.354C313.195 213.305 313.117 213.279 313.038 213.279C312.96 213.279 312.882 213.305 312.809 213.354C312.737 213.403 312.671 213.476 312.615 213.567C312.56 213.659 312.516 213.767 312.486 213.886C312.456 214.006 312.44 214.133 312.44 214.262Z" fill="#FED100" stroke="black" stroke-width="0.286432"/>
<path d="M312.318 217.342C312.318 217.471 312.333 217.599 312.363 217.719C312.393 217.838 312.437 217.946 312.493 218.038C312.548 218.129 312.614 218.201 312.687 218.251C312.76 218.3 312.837 218.326 312.916 218.326C312.995 218.326 313.072 218.3 313.145 218.251C313.218 218.201 313.284 218.129 313.339 218.038C313.395 217.946 313.439 217.838 313.469 217.719C313.499 217.599 313.514 217.471 313.514 217.342C313.514 217.213 313.499 217.085 313.469 216.966C313.439 216.847 313.395 216.738 313.339 216.647C313.284 216.556 313.218 216.483 313.145 216.434C313.072 216.385 312.995 216.359 312.916 216.359C312.837 216.359 312.76 216.385 312.687 216.434C312.614 216.483 312.548 216.556 312.493 216.647C312.437 216.738 312.393 216.847 312.363 216.966C312.333 217.085 312.318 217.213 312.318 217.342Z" fill="#FED100" stroke="black" stroke-width="0.286432"/>
</g>
<defs>
<clipPath id="clip0_0_1">
<rect width="400" height="300" fill="white"/>
</clipPath>
</defs>
</svg>
