<svg width="800" height="600" viewBox="0 0 800 600" fill="none" xmlns="http://www.w3.org/2000/svg">
<rect width="800" height="600" fill="#F5F5F5"/>
<g clip-path="url(#clip0_0_1)">
<path d="M-50 0H850V600H-50V0Z" fill="white"/>
<path d="M250 450C332.843 450 400 382.843 400 300C400 217.157 332.843 150 250 150C167.157 150 100 217.157 100 300C100 382.843 167.157 450 250 450Z" fill="#E30A17"/>
<path d="M287.5 420C353.774 420 407.5 366.274 407.5 300C407.5 233.726 353.774 180 287.5 180C221.226 180 167.5 233.726 167.5 300C167.5 366.274 221.226 420 287.5 420Z" fill="white"/>
<path d="M-50 60H850V120H-50V60ZM-50 480H850V540H-50V480ZM367.5 300L503.176 255.916L419.324 371.329V228.671L503.176 344.084L367.5 300Z" fill="#E30A17"/>
</g>
<defs>
<clipPath id="clip0_0_1">
<rect width="800" height="600" fill="white"/>
</clipPath>
</defs>
</svg>
