<svg width="800" height="600" viewBox="0 0 800 600" fill="none" xmlns="http://www.w3.org/2000/svg">
<g clip-path="url(#clip0_1_2)">
<path d="M-200 0H1000V600H-200V0Z" fill="#006D21"/>
<path d="M-200 200H1000V600H-200V200Z" fill="white"/>
<path d="M-200 400H1000V600H-200V400Z" fill="#DF0000"/>
<path fill-rule="evenodd" clip-rule="evenodd" d="M180.943 47.7324C179.912 61.6392 178.675 86.112 190.492 88.6224C204.784 89.9964 196.903 64.4328 202.076 59.7972C203.054 57.5064 204.858 57.4944 205.007 60.384V82.068C204.876 89.1192 209.512 91.1964 213.113 92.6532C216.86 92.364 219.362 92.4888 220.831 96.1356C221.417 108.638 222.004 121.141 222.589 133.644C222.589 133.644 231.281 136.132 231.695 112.547C232.11 98.6988 228.929 87.1068 230.794 84.4128C230.86 81.7656 234.24 81.6072 236.585 82.8972C240.32 85.5324 241.985 88.7868 247.79 87.4848C256.625 85.0512 261.935 80.754 262.066 73.9704C261.55 67.524 260.827 61.0764 258.034 54.63C258.424 53.4576 256.328 50.4204 256.717 49.248C258.305 51.7344 260.72 51.528 261.27 49.248C259.766 44.2932 257.434 39.546 253.651 37.4916C250.525 34.7376 245.951 35.3004 244.276 41.0436C243.499 47.6616 246.661 55.524 251.48 61.9344C252.504 64.4388 253.942 68.6004 253.309 72.348C250.745 73.8108 248.18 73.2012 246.032 70.9332C246.032 70.9332 239 65.6592 239 64.4868C240.866 52.5396 239.414 51.1848 238.38 47.8692C237.658 43.2924 235.486 41.8248 233.726 38.6988C231.967 36.834 229.588 36.834 228.45 38.6988C225.342 44.0868 226.792 55.6536 229.037 60.834C230.659 65.5992 233.138 68.5896 231.967 68.5896C231.002 71.2824 229.008 70.6608 227.557 67.5528C225.486 61.1292 225.071 51.5448 225.071 47.2284C224.449 41.8776 223.766 30.4644 220.244 27.564C218.096 24.6384 214.912 26.0652 213.799 28.7352C213.568 34.0464 213.544 39.3564 214.141 44.2512C216.557 52.836 217.315 60.384 218.488 69.1752C218.813 80.9508 211.679 74.2848 212.005 68.4468C213.65 60.864 213.223 48.9288 211.762 45.9036C210.602 42.8784 209.234 42.132 206.416 42.63C204.178 42.4932 198.419 48.7812 196.802 59.2116C196.802 59.2116 195.424 64.5804 194.836 69.3468C194.045 74.7336 190.499 78.5352 188.012 68.5896C185.863 61.3608 184.542 43.5648 180.943 47.7324Z" fill="white"/>
<path fill-rule="evenodd" clip-rule="evenodd" d="M219.78 104.786C207.168 110.952 194.97 116.704 182.563 122.662C183.017 114.226 200.257 98.9976 212.015 98.7828C219.667 98.9964 217.745 101.748 219.78 104.786Z" fill="white"/>
<path fill-rule="evenodd" clip-rule="evenodd" d="M213.278 116.448C193.664 167.008 259.208 174.053 266.533 118.519C267.223 116.24 269.987 113.96 270.47 117.69C268.95 167.972 219.772 171.427 211.415 155.609C209.344 151.88 208.721 143.592 208.513 138.618C207.27 128.742 202.091 132.54 201.262 142.348C200.432 147.804 200.64 149.326 200.64 154.574C203.264 194.29 266.604 177.229 276.894 144.421C282.35 126.254 275.995 112.856 278.965 112.924C285.251 119.694 294.022 113.822 295.956 111.474C296.785 110.299 298.859 109.541 300.308 111.06C305.212 114.584 313.848 112.924 315.642 106.708C316.679 100.63 317.508 94.344 317.716 87.8532C313.708 89.0976 310.739 89.9244 310.463 91.5828C310.186 93.3792 309.911 95.1732 309.634 96.9696C309.289 98.6976 305.833 98.7648 305.696 96.5544C304.177 89.6472 297.892 88.7496 294.092 99.4572C291.536 101.528 286.909 101.944 286.424 98.8356C287.046 91.6524 284.144 90.684 278.344 94.0692C276.479 79.8408 274.615 66.234 272.749 52.0056C275.167 51.936 277.379 53.7312 279.589 50.9688C277.169 43.4412 272.059 28.038 269.226 26.9328C267.845 25.2756 266.669 26.3112 264.875 26.7252C261.836 27.6924 259.003 30.3168 259.901 35.4288C263.492 57.2544 265.842 73.9008 269.434 95.7276C269.986 98.2836 267.845 101.665 265.082 101.321C260.386 98.1432 259.214 91.7208 251.2 91.9956C245.398 92.0652 238.765 98.3508 237.938 104.431C236.971 109.264 236.624 114.512 237.936 118.727C242.014 123.63 246.917 123.149 251.2 122.042C254.722 120.593 257.622 117.07 258.866 117.898C259.696 118.934 259.072 130.536 242.288 139.447C232.135 144.006 224.053 145.043 219.704 136.753C217.01 131.573 219.911 111.888 213.278 116.448Z" fill="white"/>
<path fill-rule="evenodd" clip-rule="evenodd" d="M296.474 65.0556C300.412 63.6048 319.063 42.2628 319.063 42.2628C318.095 41.4336 317.231 40.812 316.264 39.9828C315.227 39.0852 315.331 38.1876 316.264 37.2888C320.891 34.596 319.406 28.6896 316.99 25.9968C312.983 24.2004 309.494 24.7872 306.938 26.1C303.692 29.208 302.934 34.1808 305.49 37.2888C307.978 38.4636 310.463 40.9848 308.804 42.366C301.174 50.5164 280.279 64.572 282.697 65.0556C283.213 65.7468 296.062 65.712 296.474 65.0556Z" fill="white"/>
<path fill-rule="evenodd" clip-rule="evenodd" d="M183.845 140.584C176.85 151.727 176.242 168.374 180.101 173.338C182.152 175.682 185.521 176.71 188.014 175.975C192.408 174.07 194.332 165.166 193.289 161.909C191.822 159.613 190.667 159.25 189.203 161.202C186.11 167.48 184.826 163.174 184.555 159.665C184.081 153.011 184.708 146.882 185.43 142.03C186.199 137.056 185.417 138.576 183.845 140.584Z" fill="white"/>
<path fill-rule="evenodd" clip-rule="evenodd" d="M482.744 122.74C475.981 108.182 466.619 93.7968 463.639 88.2708C460.661 82.7424 438.172 50.1048 434.861 46.434C427.555 37.752 446.724 50.0496 432.436 32.8128C426.988 28.1388 426.671 27.8544 422.149 24.0408C419.868 22.422 414.299 19.4652 413.312 24.366C412.817 28.6872 413.084 31.0308 413.81 34.6284C414.367 37.0272 417.862 41.0448 419.58 43.3728C442.397 74.0424 462.629 105.016 482.14 143.958C485.22 142.494 484.547 125.176 482.744 122.74Z" fill="white"/>
<path fill-rule="evenodd" clip-rule="evenodd" d="M453.059 171.445C451.729 172.938 456.342 179.323 462.337 179.317C472.363 178.153 481.189 172.522 489.361 157.697C491.546 154.24 495.388 146.845 495.5 141.109C496.265 107.479 493.817 81.3108 488.778 57.0048C488.455 54.6372 488.652 51.8544 489.053 51.144C489.702 50.3688 491.904 51.1476 493.072 49.2324C494.785 47.4828 488.521 32.9904 484.95 27.408C483.682 24.9156 483.24 23.2512 481.141 27.7008C478.933 31.3176 477.45 37.6284 477.624 43.5252C482.407 76.6392 483.876 105.608 487.002 138.724C487.256 141.926 486.786 146.58 484.657 148.435C476.783 156.658 465.418 166.778 453.059 171.445Z" fill="white"/>
<path fill-rule="evenodd" clip-rule="evenodd" d="M588.498 171.268C581.303 175.427 581.294 180.211 587.112 180.384C597.138 179.22 608.984 178.387 617.156 166.05C619.343 162.593 621.94 153.244 622.052 147.508C622.817 113.878 621.613 88.776 616.574 64.47C616.252 62.1024 615.204 56.6532 615.605 55.9428C616.254 54.2784 619.523 56.124 620.69 54.2088C622.404 52.4592 612.229 39.3888 608.658 33.8064C607.39 31.314 606.948 29.6496 604.849 34.0992C602.641 37.716 601.87 44.2044 602.754 49.9236C608.07 85.8816 612.028 112.896 612.844 144.767C612.386 147.792 612.272 149.423 610.854 153.234C607.716 157.256 604.24 162.286 600.979 164.717C597.72 167.147 590.766 169.466 588.498 171.268Z" fill="white"/>
<path fill-rule="evenodd" clip-rule="evenodd" d="M593.891 139.033C593.808 130.624 594.01 123.362 593.732 117.09C593.456 110.818 592.348 105.71 590.177 101.258C588.122 96.4848 589.398 92.6484 588.433 87.564C587.47 82.4808 587.707 74.868 586.25 68.8356C585.851 66.48 584.627 58.9356 585.005 58.212C585.599 56.5284 587.861 58.2648 588.966 56.3136C590.621 54.51 583.226 35.3772 579.475 29.9136C578.126 27.4644 575.677 28.3032 572.657 32.286C569.856 34.9068 570.895 40.884 571.964 46.5708C579.158 84.114 584.525 118.094 583.354 153.833C582.995 156.871 593.965 144.769 593.891 139.033Z" fill="white"/>
<path fill-rule="evenodd" clip-rule="evenodd" d="M540.732 92.4636C536.207 92.3808 526.729 83.658 523.963 78.5472C522.918 75.6156 523.589 72.756 524.51 71.0808C526.186 69.9912 528.763 68.7672 530.69 69.9408C530.69 69.9408 532.688 72.7368 532.302 73.092C534.773 74.2752 535.822 73.5948 536.072 72.5892C536.24 70.83 535.342 69.7812 535.332 67.8432C536.38 62.5872 542.387 61.77 544.649 65.1216C546.305 67.1652 546.912 71.5068 547.163 74.4384C547.136 75.936 544.711 74.1792 543.334 74.5392C541.955 74.9004 541.624 76.4904 541.517 77.9292C541.267 81.7404 540.816 87.8556 540.732 92.4636Z" fill="white"/>
<path fill-rule="evenodd" clip-rule="evenodd" d="M457.228 148.356C458.474 136.93 456.767 116.58 456.653 109.837C456.196 93.9084 453.594 63.1428 452.356 58.0032C450.96 48.3144 456.341 59.0664 455.596 53.4348C453.851 43.7592 448.484 37.2012 442.176 28.3392C440.142 25.4568 440.21 24.8688 437.07 29.046C433.595 36.93 436.595 42.3528 437.492 48.492C442.042 68.496 444.696 86.9028 445.932 105.098C447.168 123.295 447.547 142.968 446.419 162.132C449.828 162.266 455.31 156.617 457.228 148.356Z" fill="white"/>
<path fill-rule="evenodd" clip-rule="evenodd" d="M609.292 130.054C601.313 116.665 589.272 102.166 586.055 96.774C582.839 91.3812 555.632 56.2788 552.166 52.7556C542.213 42.3 556.73 51.054 550.26 42.978C544.788 36.9696 543.192 35.0832 538.508 31.47C536.16 29.952 534.737 27.054 533.965 31.9932C533.658 36.3324 533.338 41.352 533.629 45.0096C533.612 47.0424 535.729 50.862 537.547 53.1132C561.678 82.7604 587.998 113.033 609.186 151.088C612.2 149.491 611.198 132.409 609.292 130.054Z" fill="white"/>
<path fill-rule="evenodd" clip-rule="evenodd" d="M247.274 105.352C246.7 106.358 245.422 107.663 245.85 109.013C246.746 110.227 247.462 110.473 248.954 110.539C250.249 110.539 252.059 110.845 252.448 110.081C253.145 109.313 253.675 107.746 253.094 106.266C251.746 102.895 247.979 104.152 247.274 105.352Z" fill="#006421"/>
<path fill-rule="evenodd" clip-rule="evenodd" d="M324.065 36.2736C316.8 57.0372 328.226 79.7496 336.149 77.538C341.864 79.9044 345.504 69.0312 347.844 57.1188C349.445 53.7756 350.654 53.4192 351.476 55.1376C351.265 70.9788 352.614 74.4876 356.687 79.296C365.772 86.3052 373.288 80.1912 373.877 79.6008C374.466 79.0116 380.951 72.5268 380.951 72.5268C382.525 70.8708 384.622 70.7736 386.845 72.2328C389.006 74.1972 388.703 77.5908 393.33 79.944C397.224 81.5016 405.55 80.304 407.478 76.9488C410.074 72.5004 410.696 70.9728 411.899 69.2856C413.752 66.8196 416.91 67.9164 416.91 68.6952C416.615 70.0704 414.761 71.4468 416.026 73.9236C418.229 75.576 418.738 74.5128 420.041 74.1456C424.65 71.9424 428.111 61.9164 428.111 61.9164C428.315 58.1868 426.224 58.4952 424.868 59.2632C423.1 60.3444 422.984 60.69 421.216 61.7712C418.962 62.106 414.59 63.6 412.429 60.2532C410.222 56.2296 410.192 50.616 408.505 46.5576C408.505 46.2624 405.577 40.1652 408.302 39.7752C409.678 40.0308 412.612 40.8072 413.078 38.3364C414.521 35.928 409.99 29.1084 406.889 25.662C404.197 22.7076 400.468 22.3512 396.868 25.368C394.346 27.6876 394.709 30.2796 394.214 32.736C393.572 35.5572 393.709 39.0276 396.572 42.7572C399.089 47.7192 403.68 54.1092 402.173 63.0948C402.173 63.0948 399.491 67.3416 394.818 66.786C392.87 66.3612 389.712 65.5344 388.025 53.0736C386.748 43.6416 388.326 30.4452 384.323 24.258C382.877 20.5224 381.821 16.9152 378.298 23.304C377.351 25.8132 373.288 29.6208 376.235 37.452C378.646 42.4176 379.627 50.4984 378.533 59.4888C376.862 62.0436 376.492 62.9088 374.302 65.4636C371.225 68.772 367.886 67.9272 365.329 66.6924C362.94 65.082 361.069 64.2492 359.978 59.1336C360.175 50.9796 360.63 37.632 359.14 34.8C356.942 30.414 353.318 32.0004 351.77 33.3252C344.333 40.1256 340.658 51.6 338.413 60.7368C336.35 67.3956 334.156 65.4876 332.612 62.8008C328.855 59.28 328.601 31.7472 324.065 36.2736Z" fill="white"/>
<path fill-rule="evenodd" clip-rule="evenodd" d="M345.937 81.4116C349.236 79.0752 347.694 77.442 352.627 82.374C358.804 92.934 362.773 106.609 363.368 118.726C363.108 121.711 365.213 123.601 366.175 122.952C366.748 115.943 383.792 106.176 399.422 104.748C401.813 104.228 400.65 99.648 401.04 97.3116C400.103 88.6344 405.916 80.7348 414.064 80.1048C425.153 81.744 428.844 87.6648 429.031 96.702C427.834 114.052 409.76 116.993 399.606 118.376C398.048 118.966 397.399 119.684 399.606 120.534L442.153 120.727L444.324 121.981C444.584 122.995 443.704 122.149 442.024 124.915C440.345 127.681 437.868 134.059 437.74 138.318C425.063 142.394 411.952 144.18 398.626 145.792C393.996 148.133 391.702 151.253 392.652 154.764C394.21 158.658 404.465 162.548 404.465 162.733C406.412 163.955 408.716 166.805 403.914 172.645C383.16 171.732 367.078 162.9 361.51 150.434C359.832 149.134 358.025 150.427 356.867 152.112C348.764 162.557 340.792 171.964 326.977 176.957C318.739 179.015 310.306 175.693 306.323 170.298C303.656 167.227 303.758 163.837 302.779 163.103C298.327 165.072 260.011 181.352 264.868 173.768C274.193 163.788 290.336 156.456 304.594 146.605C305.622 143.305 307.493 132.139 313.124 128.503C313.45 128.531 312.232 135.06 312.354 137.814C312.418 140.075 312.188 140.96 312.683 140.378C313.645 139.765 330.944 126.172 332.281 122.003C333.968 119.612 332.788 113.558 332.788 113.375C329.543 105.013 324.992 104.303 323.305 100.148C321.786 94.6296 322.474 88.3296 325.628 86.574C328.429 84.0312 331.747 84.3456 334.807 87.1248C338.302 90.2544 341.405 96.3708 342.302 100.927C341.702 102.73 337.73 99.7296 336.352 100.624C338.791 103.15 339.93 106.063 340.811 109.628C343.064 119.172 342.377 122.882 340.109 129.054C332.428 145.204 322.612 150.023 314.023 156.005C313.794 156.086 313.642 160.103 316.872 162.275C317.986 163.444 322.465 164.044 327.733 162.356C337.912 156.805 348.479 146.58 353.724 135.188C355.247 126.571 353.135 117.434 350.894 109.466C347.519 101.678 343.543 90.5592 343.543 90.3756C343.412 85.5192 343.807 83.8344 345.937 81.4116Z" fill="white"/>
<path fill-rule="evenodd" clip-rule="evenodd" d="M234.545 36.498C239.442 38.8332 248.648 37.8396 248.26 29.9436C248.26 29.2452 248.082 26.8824 248.012 26.2428C247.013 23.9148 244.285 24.4896 243.667 26.8932C243.473 27.6804 244.014 28.962 243.301 29.358C242.892 29.7708 241.327 29.5284 241.392 27.3468C241.392 26.652 240.88 25.9044 240.571 25.464C240.262 25.2612 240.065 25.2048 239.504 25.2048C238.822 25.2324 238.832 25.41 238.458 25.9836C238.3 26.568 238.08 27.1392 238.08 27.8016C237.995 28.578 237.702 28.8552 237.131 28.9692C236.492 28.9692 236.636 29.04 236.119 28.71C235.812 28.374 235.428 28.2456 235.428 27.672C235.428 27.078 235.294 26.1168 235.115 25.7244C234.844 25.3668 234.408 25.2012 233.917 25.0752C231.242 25.0848 231.058 28.1352 231.211 29.2932C231.011 29.5116 230.897 34.9836 234.545 36.498Z" fill="white"/>
<path fill-rule="evenodd" clip-rule="evenodd" d="M378.095 97.2588C382.992 99.594 394.649 98.25 391.81 90.7044C391.81 90.006 391.632 87.6432 391.562 87.0036C390.563 84.6756 387.835 85.2504 387.217 87.654C387.023 88.4412 387.564 89.7228 386.851 90.1188C386.442 90.5316 384.877 90.2892 384.942 88.1076C384.942 87.4128 384.43 86.6652 384.121 86.2248C383.812 86.022 383.615 85.9656 383.054 85.9656C382.372 85.9932 382.382 86.1708 382.008 86.7444C381.85 87.3288 381.63 87.9 381.63 88.5624C381.545 89.3388 381.252 89.616 380.681 89.73C380.042 89.73 380.186 89.8008 379.669 89.4708C379.362 89.1348 378.978 89.0064 378.978 88.4328C378.978 87.8388 378.844 86.8776 378.665 86.4852C378.394 86.1276 377.958 85.962 377.467 85.836C374.792 85.8456 374.608 88.896 374.761 90.054C374.561 90.2724 374.447 95.7444 378.095 97.2588Z" fill="white"/>
<path fill-rule="evenodd" clip-rule="evenodd" d="M461.802 72.1104C466.699 74.4456 475.906 73.452 475.517 65.556C475.517 64.8576 475.339 62.4948 475.27 61.8552C474.27 59.5272 471.542 60.102 470.924 62.5056C470.73 63.2928 471.271 64.5744 470.558 64.9704C470.149 65.3832 468.584 65.1408 468.649 62.9592C468.649 62.2644 468.137 61.5168 467.828 61.0764C467.519 60.8736 467.322 60.8172 466.762 60.8172C466.079 60.8448 466.09 61.0224 465.715 61.596C465.557 62.1804 465.337 62.7516 465.337 63.414C465.252 64.1904 464.959 64.4676 464.388 64.5816C463.75 64.5816 463.894 64.6524 463.376 64.3224C463.069 63.9864 462.685 63.858 462.685 63.2844C462.685 62.6904 462.551 61.7292 462.372 61.3368C462.101 60.9792 461.665 60.8136 461.174 60.6876C458.5 60.6972 458.315 63.7476 458.468 64.9056C458.268 65.124 458.154 70.596 461.802 72.1104Z" fill="white"/>
<path fill-rule="evenodd" clip-rule="evenodd" d="M505.157 135.27C496.622 144.888 500.386 160.796 502.313 164.224C505.127 169.853 507.392 173.464 512.868 176.248C517.855 179.918 521.741 177.624 523.883 175.054C528.901 169.853 528.961 156.575 531.317 153.943C532.969 149.11 537.13 149.935 539.149 152.077C541.106 154.891 543.412 156.706 546.287 158.237C550.968 162.366 556.558 163.121 562.064 159.358C565.828 157.247 568.274 154.519 570.478 149.105C572.926 142.558 571.561 112.309 571.072 94.3812C570.883 92.9748 566.207 69.7272 566.207 69.468C566.207 69.2076 565.589 57.6036 565.074 54.8388C564.984 53.7168 564.706 53.394 565.882 53.5368C567.128 54.5856 567.299 54.6516 568.078 54.9972C569.336 55.2276 570.463 53.0856 569.704 51.114C565.81 43.932 561.916 36.7488 558.022 29.5668C557.084 28.644 555.874 27.63 554.387 29.8272C552.966 31.0728 551.453 33.3276 551.5 36.2256C551.845 41.3316 552.743 46.5276 553.088 51.6336C554.646 60.3732 556.205 69.114 557.762 77.8536C559.234 96.5448 559.602 111.841 561.073 130.532C560.867 138.446 558.407 145.346 556.099 146.342C556.099 146.342 552.588 148.378 550.234 146.13C548.521 145.442 541.667 134.707 541.667 134.707C538.163 131.495 535.853 132.413 533.359 134.707C526.483 141.347 523.372 153.768 518.699 162.335C517.494 164.246 514.088 165.883 510.316 162.196C500.734 149.105 506.35 130.481 505.157 135.27Z" fill="white"/>
<path fill-rule="evenodd" clip-rule="evenodd" d="M463.999 26.262C468.386 28.098 471.481 36.9852 470.472 41.3244C469.598 46.692 467.272 52.4892 465.599 51.7344C463.781 51.06 466.838 46.3992 465.091 41.508C464.12 38.3244 458.134 32.508 458.764 30.7932C457.528 27.2004 461.309 25.6284 463.999 26.262Z" fill="white"/>
<path fill-rule="evenodd" clip-rule="evenodd" d="M519.282 140.542C520.205 129.87 518.647 123.362 518.37 117.09C518.094 110.818 511.276 62.958 509.893 58.212C508.225 49.2384 516.521 57.0084 515.615 51.7896C512.744 45.21 505.602 35.6292 503.359 29.9136C502.01 27.4644 502.577 25.2864 499.556 29.2692C496.756 38.4264 495.784 45.9108 496.853 51.5976C504.047 89.1408 511.424 120.356 510.253 156.095C513.665 156.118 517.597 148.289 519.282 140.542Z" fill="white"/>
<path fill-rule="evenodd" clip-rule="evenodd" d="M594.242 41.3868C598.242 43.3752 600.584 54.5124 600.143 57.6936C599.347 63.5052 597.226 69.7812 595.7 68.964C594.043 68.2344 596.033 60.3456 595.237 57.8928C594.353 54.4464 588.895 48.1488 589.469 46.2924C588.342 42.4032 591.79 40.7016 594.242 41.3868Z" fill="white"/>
<path fill-rule="evenodd" clip-rule="evenodd" d="M296.989 120.36C300.815 121.82 303.058 130.004 302.635 132.343C301.872 136.613 299.842 141.224 298.385 140.624C296.798 140.088 298.703 134.291 297.941 132.488C297.618 128.117 292.308 125.854 292.42 123.965C291.428 120.493 294.641 119.855 296.989 120.36Z" fill="white"/>
<path fill-rule="evenodd" clip-rule="evenodd" d="M389.424 132.643C394.362 132.956 396.829 136.831 392.204 138.456C387.642 140.018 383.257 141.239 383.237 147.832C384.924 157.019 380.922 153.866 378.535 152.618C375.722 150.599 367.829 145.736 366.704 135.236C366.535 132.731 368.489 130.622 371.634 130.637C376.372 131.924 383.362 132.018 389.424 132.643Z" fill="#006421"/>
<path fill-rule="evenodd" clip-rule="evenodd" d="M194.731 23.6136C200.376 25.3152 200.71 33.612 200.293 36.0372C199.541 40.464 197.542 45.2448 196.105 44.622C194.543 44.0664 196.044 38.0568 195.294 36.1872C194.458 33.5616 189.688 28.7652 190.229 27.3516C189.167 24.3876 192.418 23.0904 194.731 23.6136Z" fill="white"/>
<path fill-rule="evenodd" clip-rule="evenodd" d="M306.208 62.7312C301.877 65.0736 300.197 72.0564 302.893 76.122C305.412 79.7028 309.39 78.3756 309.92 78.3756C314.164 78.906 316.681 70.4208 316.681 70.4208C316.681 70.4208 316.814 68.0352 311.776 72.5436C309.655 72.9408 309.39 72.1452 308.86 70.9512C308.418 68.742 308.506 66.5328 309.522 64.3224C310.273 62.202 308.638 61.2732 306.208 62.7312Z" fill="white"/>
<path fill-rule="evenodd" clip-rule="evenodd" d="M338.69 20.4072C336.514 21.8664 332.182 26.3544 332.05 31.5252C331.918 34.4424 331.374 34.434 333.284 36.2904C334.664 38.28 336.056 38.1012 338.842 36.642C340.441 35.4636 340.982 34.6812 341.521 32.7048C342.185 29.3904 338.017 34.2768 337.487 30.588C336.559 27.1632 339.235 25.7616 341.754 22.4472C341.838 20.1768 341.789 18.5688 338.69 20.4072Z" fill="white"/>
<path fill-rule="evenodd" clip-rule="evenodd" d="M364.862 25.056C363.924 27.1284 362.8 37.9536 362.987 37.9536C362.238 41.1792 366.362 42.5592 368.238 38.4132C371.05 30.8124 371.05 27.588 371.238 24.3636C370.362 19.452 367.05 19.6056 364.862 25.056Z" fill="white"/>
<path fill-rule="evenodd" clip-rule="evenodd" d="M529.862 109.018C530.425 108.455 553.114 92.3304 553.114 92.3304C555.426 91.518 554.926 100.643 553.864 100.58C554.3 102.392 531.488 117.893 529.862 117.268C528.738 118.08 527.612 111.018 529.862 109.018Z" fill="white"/>
<path fill-rule="evenodd" clip-rule="evenodd" d="M550.554 108.887C554.554 110.875 556.146 122.575 555.704 125.756C555.846 131.944 551.85 136.907 550.325 136.09C548.668 135.36 550.47 128.408 549.674 125.956C548.79 122.509 545.394 116.024 545.968 114.168C544.841 110.279 548.101 108.202 550.554 108.887Z" fill="white"/>
<path fill-rule="evenodd" clip-rule="evenodd" d="M415.597 159.269C417.175 156.962 422.05 153.643 422.16 153.643C424.409 152.518 426.606 154.525 426.473 154.393C426.847 156.643 425.05 158.737 425.612 161.738C426.104 162.948 426.464 164.291 428.681 163.778C432.283 160.944 435.62 160.762 439.223 160.58C441.984 160.747 442.093 165.421 440.347 165.456C433.696 166.902 430.715 168.683 425.965 170.496C423.715 171.808 421.784 170.143 421.784 169.956C421.784 169.769 420.468 168.679 421.387 165.698C421.55 163.308 420.588 161.998 418.597 162.269C417.097 163.08 415.776 163.618 415.026 161.893C414.731 160.62 414.635 160.001 415.597 159.269Z" fill="white"/>
<path fill-rule="evenodd" clip-rule="evenodd" d="M574.423 165.57C575.395 166.807 576.024 167.952 574.345 169.985C572.754 171.443 571.633 172.246 570.042 173.704C569.291 174.985 568.811 176.929 571.109 177.548C575.352 178.741 585.163 172.378 585.163 172.244C586.754 171.052 586.224 168.798 586.091 168.798C585.163 167.737 583.073 168.367 581.666 168.196C580.997 168.196 578.801 167.863 579.846 165.919C580.718 164.71 581.03 163.969 581.622 162.479C582.284 161.021 581.716 160.048 579.329 159.252C576.898 158.81 575.927 159.031 573.23 159.252C571.772 159.562 571.274 160.213 571.009 161.981C571.114 164.662 572.744 164.509 574.423 165.57Z" fill="white"/>
<path d="M411.769 99.4759C413.741 100.617 415.844 100.669 416.466 99.5936C417.088 98.5179 415.994 96.7212 414.022 95.5806C412.05 94.4399 409.947 94.3873 409.325 95.463C408.703 96.5386 409.797 98.3353 411.769 99.4759Z" fill="#006421"/>
<path d="M309.468 34.9412C310.19 36.5258 311.73 37.5764 312.909 37.2878C314.088 36.9991 314.458 35.4805 313.736 33.8958C313.015 32.3112 311.474 31.2606 310.295 31.5493C309.117 31.838 308.746 33.3566 309.468 34.9412Z" fill="#006421"/>
<path d="M400 250L381.459 307.063L409.991 316.334" fill="black"/>
<path d="M400 250L418.541 307.063L390.009 316.334" fill="black"/>
<path d="M457.063 291.459H397.063V321.459" fill="black"/>
<path d="M457.063 291.459L408.522 326.726L390.889 302.456" fill="black"/>
<path d="M435.267 358.541L416.726 301.478L388.194 310.748" fill="black"/>
<path d="M435.267 358.541L386.726 323.274L404.36 299.003" fill="black"/>
<path d="M364.733 358.541L413.274 323.274L395.64 299.003" fill="black"/>
<path d="M364.733 358.541L383.274 301.478L411.806 310.748" fill="black"/>
<path d="M342.937 291.459L391.478 326.726L409.111 302.456" fill="black"/>
<path d="M342.937 291.459H402.937V321.459" fill="black"/>
</g>
<defs>
<clipPath id="clip0_1_2">
<rect width="800" height="600" fill="white"/>
</clipPath>
</defs>
</svg>
